<?xml version="1.0" encoding="UTF-8"?>
<svg xmlns="http://www.w3.org/2000/svg" viewBox="0 0 2596.88 1677.11">
  <defs>
    <style>
      .cls-1 {
        opacity: .5;
      }

      .cls-2, .cls-3 {
        stroke-width: 0px;
      }

      .cls-3 {
        fill: #033a5e;
      }

      .cls-4 {
        opacity: .49;
      }
    </style>
  </defs>
  <g id="_图层_27" data-name="图层 27" class="cls-4">
    <path class="cls-2" d="m1252.12,1236.99c-5.37,4.45-14.87,4.7-21.88.61-5.95,6.77-11.07,14.13-14.55,22.61-.54,1.32-.83,2.78-1.53,3.99-.51.88-1.51,1.46-2.29,2.18-.22-1.05-.83-2.2-.58-3.13.71-2.58,1.6-5.15,2.76-7.56,2.36-4.9,3.19-10.02,3.12-15.54-7.44,1.42-14.07-.32-20.09-4.43-2.85-1.95-5.3-4.33-7.23-7.91,9.6.06,18.42,1.27,26.48,6.79-.84-5.01-2.89-9.14-5.12-13.14-1.12-2-2.71-3.73-4.21-5.47-4.22-4.87-7.3-10.45-9.65-16.63,4.51-.22,10.4,4.12,12.18,9.34.75,2.21.44,4.83.74,7.24.12.98.41,2.03.93,2.82,3.57,5.36,6.86,10.86,8.41,17.24,1.5-4.17,3.12-8.32,4.45-12.57.37-1.16-.3-2.6-.17-3.89.52-5.29,3.98-11.69,8.79-15.96-.16,2.94-.07,5.39-.48,7.75-.73,4.2-2.31,8.02-5.66,10.93-.7.6-.98,1.89-1.2,2.91-1.25,5.81-2.43,11.63-3.75,18.03.8-.75,1.22-1.14,1.64-1.53,5.35-4.95,10.71-9.89,16.03-14.87.88-.82,1.51-1.94,2.41-2.74,5.09-4.55,11.02-5.99,18.04-5.87-4.43,5.28-9.11,8.74-15.33,8.66-2.21-.03-3.83.53-5.38,2.05-1.6,1.56-3.28,3.03-5.51,5.07,6.96-.92,12.96-.12,18.61,3.01Z"/>
    <path class="cls-2" d="m1148.72,1203.4c.89-3.23,1.79-6.45,2.67-9.68,1.32-4.81,4.64-9.65,13.27-13.75,3.49-1.66,9.76-3.48,12.59-3.19,3.27.34,5.83,2.63,5.73,4.62-.29,5.49-6.84,11.24-16,15.72-16.04,7.83-20.32,14.74-17.05,22.64,2.62,6.33,2.16,13.52,3.09,20.49,2.52-4.57,4.55-8.99,7.51-13.43,3.22-4.85,7.83-9.84,17.36-13.24,4.26-1.52,10.5-2.59,14.3-2.29,5.59.44,3.74,3.89.59,6.47-9.26,7.59-18.59,15.22-29.13,22.51-7.65,5.29-11.67,9.83-11.66,15.22.01,6.42-2.54,13.35-2.91,20.08,1.43-2.46,2.39-4.93,4.38-7.38,4.53-5.56,9.42-11.12,14.52-16.66,1.22-1.33,3.61-2.68,5.83-3.84,4.92-2.56,10.36-4.14,15.16-3.05,4.66,1.07,5.54,3.78,1.94,6.71-6.46,5.25-13.97,10.34-21.27,15.44-2.03,1.42-4.83,2.65-7.32,3.95-10.59,5.54-19.91,11.21-22.27,18.19-.68,2-3.11,4.21-4.74,6.32-.95.05-1.89.09-2.84.14.6-1.62.73-3.23,1.9-4.85,2.95-4.09,2.56-7.34-1.38-9.79-8.65-5.37-17.59-10.6-26.05-16.06-3.04-1.96-6.36-4.08-7-6.76-.43-1.79,2.63-5.5,5.94-6.9,3.69-1.56,10.67-2.48,14.07-1.92,10.33,1.7,14.26,6.66,16.36,12.06,2.16,5.55,3.03,11.46,5.22,17.23,1.68-10.08,5.64-20.69,4.08-30.02-.79-4.71-11.11-7.34-18.05-10.41-3.68-1.62-10.09-1.73-13.91-3.29-4.24-1.74-7.83-4.03-10.02-6.68-2.36-2.86,1.26-6.47,7.57-9.35,6.16-2.81,12.77-3.51,17.49-2.14,5.6,1.64,10.16,3.95,16.81,5.63-1.47-5.88-2.7-11.82-4.62-17.58-.35-1.06-3.04-1.86-5.38-1.95-8.33-.33-17.5.21-25.34-.56-6.47-.63-12.46-2.14-16.74-4.25-2.03-1-1.24-4.75,1.27-6.5,2.46-1.71,9.22-3.27,13.23-3.46,10.28-.47,16.03,2.49,20.62,6.01,3.08,2.36,6.27,4.68,10.46,6.61-2.85-13.68-1.08-28.68-20.48-37.21-3.36-1.48-6.2-3.42-7.75-5.66-.86-1.25.6-4.46,2.5-5.17,3.46-1.29,9.15-2.27,11.96-1.79,12.45,2.12,20.22,6.97,17.69,14.83-4.58,14.2,3.93,25.31,3.69,38.43.7-.17,1.4-.34,2.11-.51Z"/>
    <path class="cls-2" d="m1313.93,1034.36c-1.72,5.49-1.21,11.16-5.54,15.57-2.23,2.27-3.67,5.54-4.76,8.6-.66,1.87-.25,4.29.2,6.34,1.01,4.61,2.34,9.14,3.54,13.7.37-.04.75-.08,1.12-.13,0-2.22.03-4.44,0-6.66-.09-4.98-.57-9.98-.16-14.92.18-2.2,1.71-4.65,3.32-6.32,4-4.13,7.69-8.05,8.14-14.38.25-3.51,2.09-7,3.64-10.3,1.9-4.03,4.29-7.82,6.37-11.76.91-1.73,1.65-3.56,2.32-5.4.47-1.29.67-2.67,1-4.01l.83.09c.08.84-.08,1.79.27,2.5.96,1.96,1.69,4.41,3.3,5.6,2.42,1.8,3.87,3.85,4.91,6.59.94,2.46,2.54,4.66,3.73,7.04,1.32,2.65,2.59,5.34,3.69,8.08.45,1.11.41,2.42.75,4.67,4.09-2.46,7.6-4.69,11.22-6.7,2.79-1.55,5.73-2.84,8.6-4.24,1.19-.58,2.4-1.12,3.6-1.69.83-.39,1.68-1.21,2.46-1.14,4.66.42,8.11-2.17,11.76-4.36,1.3-.78,2.76-1.29,4.36-2.02.11.97.21,1.31.14,1.35-4.04,2.56-4.35,6.57-4.72,10.85-.42,4.92-1.63,9.77-2.5,14.65-.05.3-.12.68-.32.87-5.11,4.91-6.14,13.45-14.33,15.73-1.83.51-3.46,2.34-4.78,3.91-2.23,2.66-5.17,3.48-8.28,4.57-4.62,1.61-9.1,3.86-13.26,6.45-1.43.89-1.72,3.6-2.56,5.56.58.3,1.05.39,1.27.68.66.88,1.83,1.97,1.66,2.73-.18.8-1.58,1.55-2.6,1.89-1.16.38-2.48.28-3.73.4,0,.38.02.76.02,1.14,1.11,0,2.39.36,3.3-.07,1.99-.95,3.41-.46,3.96,1.41.26.89-.35,2.61-1.12,3.11-1.72,1.13-2.84-.27-3.71-1.69-.05-.09-.14-.15-.21-.23-6.07,3.3-7.42,10.01-11.35,15.1,5.1.64,7.2,4.79,10.37,7.47.85.72,1.48,1.78,1.99,2.79,2.24,4.37,5.76,7,10.19,9.16,5.7,2.79,9.5,7.39,9.07,14.44-.07,1.16.74,2.47,1.39,3.56,1.31,2.19,2.94,4.19,4.15,6.43,1.38,2.53,2.46,5.22,3.62,7.87.22.5.18,1.12.34,2.16-2.87-1.64-5.2-3.43-7.83-4.35-2.7-.94-5.69-1.03-8.55-1.52-.3-.05-.69-.18-.83-.41-2.3-3.82-6.56-3.89-10.07-5.46-4.87-2.18-8.49-5.44-9.03-11.39-.16-1.72-1.83-3.69-3.35-4.82-2.49-1.85-4.07-3.75-4.62-6.99-.33-1.99-2.34-3.7-3.96-6.05-2.15,6.19-3.81,11.65-4.92,17.55-2.21,11.78-1.45,23.5-1.24,35.2.26,14.27,1.75,28.51,2.74,42.77.18,2.55.55,5.1-2.86,6.16-3.02-20.59-1.72-41.29-2.74-62.29-2.49,2.36-4.58,4.76-7.08,6.61-3.47,2.57-7.24,4.74-10.89,7.06-1.12.71-2.29,1.36-3.45,2.01-1.79,1.02-3.5,2.58-5.42,2.9-3.64.61-6.27,2.06-7.52,5.63-.17.48-.44.93-.66,1.39-.34-.18-.69-.36-1.03-.53.15-1.09.12-2.24.47-3.27,1.21-3.55,1.95-7.05.02-10.6-.24-.44-.43-1.09-.28-1.51,1.94-5.61-.97-12.17,3.44-17.35.67-.79.72-2.43.5-3.58-.64-3.33.82-5.91,2.63-8.37,3.07-4.16,6.29-8.21,9.33-12.39,1.4-1.93,2.81-3.59,5.42-3.75.8-.05,1.63-.41,2.35-.81,3.71-2.09,7.5-3.15,11.89-.6-.38-7.63-.74-14.67-2.79-21.22-1.1,1.48-1.89,2.99-3.12,3.93-.32.25-2-1.28-3.05-2,1.02-1.42,2.04-2.84,3.39-4.73-1.25-1.33-3.04-3.25-4.93-5.27-2.67,3.58-5.53,6.89-7.77,10.58-2.26,3.72-5.05,6.59-9,8.36-1.04.47-2.22.81-3.07,1.52-7.82,6.55-16.94,6.71-26.44,5.81-2.53-.24-5.2.91-7.79,1.51-2.19.51-4.4,1-6.51,1.76-2.25.81-4.38,1.92-6.89,3.05,1.02-2.26,2.02-4.39,2.96-6.55,1.32-3.05,2.52-6.15,3.91-9.16.89-1.93,1.7-4.08,3.15-5.52,3.81-3.8,7.71-7.6,12.03-10.76,4.43-3.24,9.41-5.72,14.17-8.52.72-.42,1.48-1.03,2.24-1.07,5.67-.29,11.49-1.3,16.99-.44,5.53.87,10.53,3.96,13.76,9.06.38.6.92,1.1,1.4,1.65.77-1.99,2.05-3.86,2.07-5.75.02-2.03-.08-4.71-3.27-5.47-.22.87-.2,1.84-.67,2.36-.7.78-1.85,1.83-2.61,1.7-1.03-.18-1.87-1.39-2.79-2.16.79-.86,1.45-1.92,2.41-2.51,1.04-.64,2.35-.84,3.54-1.24-.08-.3-.15-.61-.23-.91-1,.2-2.02.62-3,.53-1.09-.09-3.01-.57-3.04-1-.09-1.26.34-2.73,1.06-3.79.22-.32,2.15.17,3.04.71,1,.6,1.7,1.68,2.54,2.55.27-.15.53-.29.8-.44-1.23-3.22-2.45-6.45-3.37-8.85-5.7,1.07-10.57,1.99-15.43,2.9-.2.04-.42.06-.62.05-4.56-.1-12.77-7.55-13.68-12.06-.75-3.72-1.69-7.45-3.11-10.95-.52-1.29-2.64-1.93-3.86-3.6,1.08.17,2.15.41,3.24.5,4,.36,8.02,1.09,12,.9,5.54-.26,9.86,1.9,13.86,5.31,1.57,1.34,3.19,2.62,5.44,4.45.66-4.64,1.08-8.26,1.72-11.84.19-1.07.75-2.26,1.51-3.01,2.86-2.84,5.85-5.53,8.84-8.23.31-.28.92-.23,1.85-.43Zm10.07,72.18c.08.38.16.75.24,1.13,1.15-.67,3.2-1.26,3.28-2.04.42-4.22.96-8.56-1.18-12.57-3.32-6.21-7.13-12.2-7.99-19.38-.41.02-.61,0-.79.04-2.33.52-4.95.56-6.92,1.71-2.64,1.55-.56,4.56-1.08,6.76-1.24,5.22,2.18,9.3,2.73,14.09.5-1.15.41-2.38.82-3.41.44-1.08,1.19-2.44,2.13-2.77.71-.25,2.63.8,2.75,1.49.16.94-.72,2.22-1.46,3.09-.69.81-1.78,1.27-2.7,1.89.14.25.27.5.41.75,1.07-.27,2.12-.68,3.2-.79,2.59-.25,4.4,3.08,2.34,4.18-1.34.72-3.55-.19-5.94-.42,0,1.3-.15,3.18.03,5.02.77,7.9,1.65,15.79,2.48,23.69.96-4.66,5.5-8.4,3.82-13.76-.23.14-.46.28-.69.41-.96-.84-1.92-1.68-2.87-2.53,1.27-1.07,2.54-2.14,3.51-2.96-.32-1.24-.94-2.77-.98-4.31-.01-.49,1.64-1.58,2.29-1.41.97.25,1.72,1.36,2.56,2.1Zm11.72-14.21c-.46-.23-.93-.46-1.39-.69-1.77,3.55-6.6,5.65-4.41,11.96,2.18-4.23,3.99-7.75,5.8-11.27Z"/>
  </g>
  <g id="_2" data-name="2">
    <g>
      <g class="cls-1">
        <path class="cls-2" d="m925.66,1335.23c23.59-25.67,51.04-40.48,78.83-42.53,22.53-1.66,45.17,4.88,67.6.8,33.55-6.1,64.26-35.43,97.32-47.04,30.58-10.74,50.42,19.12,93.07-15.52,59.29-48.16,104.97-109.09,163.02-106.71,42.55,1.75,66.15,22.43,136.77-38.39,36.47-31.41,36.47-59.33,56.73-54.1v354.24l-696,2.12,2.66-52.88Z"/>
      </g>
      <path class="cls-3" d="m933.62,1339.32c23.28-24.17,50.38-38.11,77.81-40.04,22.24-1.57,44.59,4.6,66.73.76,33.11-5.74,63.43-33.35,96.07-44.29,30.18-10.11,49.77,18,91.86-14.61,58.53-45.34,103.61-102.71,160.91-100.47,42,1.64,65.29,21.12,135-36.14,36-29.57,36-55.86,56-50.93v333.51l-687,2,2.62-49.79Z"/>
      <path class="cls-3" d="m1503.95,1065.54c1.48-.65,2.94-.88,4.39,0,.45.27.81.7,1.22,1.06.1.08.18.2.29.24,1.47.62,2.6,1.67,3.48,3.05.03.05.07.1.1.15,0,0,.02,0,.07.02-.07-.47-.12-.93-.22-1.37-.28-1.26-.58-2.52-.88-3.77-.2-.82-.78-1.32-1.41-1.76-.14-.1-.29-.17-.44-.25-.41-.25-.79-.33-1.28-.1-.79.38-1.63.19-2.43-.09-.54-.19-1.08-.42-1.61-.63.91-.95,2.56-1.54,3.93-.65.22.14.47.24.71.35.54.24,1.08.47,1.64.72-.04-.09-.08-.2-.12-.31-.85-1.93-1.98-3.67-3.3-5.28-.08-.1-.22-.17-.35-.2-.44-.11-.88-.19-1.32-.28-2.78-.58-4.44-2.41-5.23-5.23-.03-.11-.06-.22-.09-.33-.02-.11-.04-.22-.08-.41.54,0,1.07-.05,1.6-.02,3.26.22,5.04,2.47,5.75,5.31.06.24.18.47.32.68.21.31.45.59.73.94-.09-.52-.18-.96-.25-1.4-.24-1.39-.26-2.78-.14-4.17.01-.16,0-.36-.07-.5-.99-2.06-.79-4,.43-5.84.32-.49.71-.92,1.1-1.36-.12,1.1.25,2.1.49,3.13.37,1.61.08,3.03-1.01,4.24-.1.11-.17.28-.18.43-.27,3.12.31,6.07,1.72,8.84.28.54.53,1.1.81,1.68.09-.5.17-.96.27-1.41.24-1.05.63-2.03,1.23-2.92.07-.1.1-.24.11-.37.11-1.09.42-2.08,1.28-2.77.62-.49,1.34-.66,2.14-.66-.06.63-.25,1.2-.5,1.75-.47,1.02-1.17,1.81-2.14,2.31-.15.08-.28.22-.37.37-.7,1.06-1.05,2.27-1.21,3.54-.07.56-.14,1.13-.12,1.7.02.45.16.91.27,1.36.29,1.29.59,2.57.88,3.87.02-.06.05-.14.06-.22.27-1.22.7-2.35,1.36-3.39.08-.12.09-.28.12-.43.09-.5.12-1.03.27-1.51.5-1.59,1.62-2.35,3.15-2.51.27-.03.38-.11.43-.4.47-2.67,1-5.34,1.25-8.05.18-1.95.23-3.9-.04-5.85-.05-.38-.25-.76-.43-1.11-1.46-2.89-3.64-4.87-6.59-5.88-.19-.06-.26-.15-.29-.35-.22-1.55-.94-2.77-2.14-3.68.73,0,3.28,1.2,4.68,2.2,1.45,1.04,2.63,2.36,3.57,3.92-.01-.05-.02-.11-.04-.16-1.16-3.08-2.85-5.85-4.83-8.4-1.4-1.8-2.88-3.54-4.38-5.25-.53-.6-1.23-1.02-1.88-1.49-1.15-.83-2.35-1.58-3.68-2.05-.32-.12-.66-.18-.99-.3-1.57-.56-2.59-1.63-2.8-3.44,0-.08-.09-.19-.15-.22-1.32-.45-2.3-1.39-3.15-2.51-1.36-1.82-2.26-3.9-2.99-6.07-.16-.48-.3-.97-.45-1.46.02-.02.04-.04.07-.07.91.4,1.83.77,2.73,1.2,1.86.88,3.63,1.93,5.14,3.4.76.74,1.41,1.56,1.79,2.59.03.08.14.15.23.17.57.1,1.14.17,1.7.28.89.18,1.55.71,1.9,1.59.46,1.17.84,2.37,1.32,3.52.6,1.45,1.23,2.9,1.93,4.29.3.6.82,1.08,1.26,1.59,1.81,2.11,3.54,4.29,5.04,6.66.02.03.05.06.11.13-.11-.39-.22-.73-.3-1.08-.05-.23-.08-.47-.08-.71,0-.46.19-.82.59-1.02.4-.2.78-.13,1.13.14.63.49.92,1.2,1.08,1.97.06.33.06.68.11,1.02.01.1.09.24.16.26,1.32.39,1.81,1.5,1.6,2.9-.08.58-.18,1.16-.24,1.74-.04.46.12.86.51,1.11.51.33.62.81.51,1.37-.09.46-.21.92-.38,1.36-.4,1.07-.61,2.14-.51,3.34.23,2.77-.13,5.51-.59,8.22-.39,2.33-.83,4.66-1.25,6.99-.01.08-.03.16,0,.25.03-.08.07-.15.1-.23,1.22-3.1,2.8-5.97,4.7-8.64.89-1.25,1.35-2.7,1.64-4.22.25-1.27.31-2.56.23-3.85,0-.17-.06-.35-.14-.5-.44-.91-.77-1.86-.97-2.86-.34-1.7.1-3.21.97-4.61.09-.15.2-.3.32-.46.71,1,1.16,2.1,1.32,3.31.2,1.44.04,2.85-.45,4.2-.21.59-.32,1.16-.3,1.8.05,1.5-.15,2.97-.55,4.4-.01.04,0,.08-.02.15.55-.59,1.05-1.17,1.59-1.71.72-.72,1.45-1.42,2.2-2.11.23-.21.35-.41.37-.77.15-2.88,1.51-4.84,4.03-5.89.25-.1.51-.19.85-.31-.03.58-.03,1.11-.08,1.62-.2,1.74-.79,3.29-2.09,4.45-.57.51-1.23.85-1.93,1.11-.21.07-.41.18-.58.33-1.35,1.18-2.61,2.46-3.78,3.83-.03.03-.05.07-.1.13.62-.28,1.2-.61,1.81-.82.96-.32,1.95-.56,2.92-.84.1-.03.21-.06.28-.12,2.03-1.94,4.31-2.1,6.77-1,.12.06.24.12.42.21-.27.11-.49.2-.7.3-.89.41-1.8.78-2.66,1.25-.97.53-1.95.65-2.99.27-.39-.15-.76-.17-1.17-.09-2.14.44-4.13,1.22-5.86,2.66-.91.76-1.58,1.75-2.2,2.77-2.2,3.56-3.84,7.38-4.77,11.54-.49,2.2-.73,4.45-.88,6.7-.16,2.44-.29,4.89-.33,7.33-.05,2.9.11,5.8.51,8.67.33,2.36.69,4.71,1.13,7.04.31,1.68.76,3.34,1.16,5.01,0,.02.02.03.09.13-.02-.19-.03-.3-.04-.41-.57-5.68-.17-11.25,1.58-16.66.33-1.03.77-2.03,1.14-3.04.11-.28.2-.58.26-.88.73-4.14,1.73-8.2,3.53-11.96,1.71-3.59,4.03-6.68,7.1-9.05,1.04-.81,2.26-1.35,3.35-2.1,1.88-1.29,3.94-2.12,6.03-2.89.29-.11.57-.25.86-.37,0,0,.02,0,.03.01-.32.66-.65,1.3-.96,1.97-1.05,2.29-1.93,4.66-2.62,7.1-1.08,3.82-3.14,6.89-6.19,9.2-1.47,1.12-2.99,2.17-4.47,3.28-2.18,1.64-4.16,3.54-5.99,5.61-.1.11-.17.25-.23.38-1.57,3.58-2.45,7.37-2.78,11.31-.27,3.28-.14,6.55.29,9.81.44,3.32,1.36,6.49,2.6,9.59,2,5.02,4.26,9.9,6.97,14.55.24.41.49.8.73,1.21.17.29.16.52-.04.65-.2.14-.41.07-.58-.22-1.37-2.2-2.6-4.5-3.76-6.83-2.6-5.24-4.77-10.68-6.53-16.29-.24-.77-.67-1.47-.99-2.22-1.33-3.13-2.32-6.38-3.13-9.69-1.26-5.14-1.85-10.38-2.27-15.64-.18-2.22-.39-4.43-.62-6.65-.16-1.55-.83-2.88-1.74-4.08-.75-.99-1.68-1.71-2.81-2.12-.17-.06-.36-.08-.54-.07-.56.04-1.13.09-1.69.15-.58.06-1.1-.09-1.59-.41-.64-.42-1.16-.99-1.63-1.67Zm15.32-3.41s-.02-.01-.03-.02c-.04.06-.1.12-.12.19-.19.47-.41.94-.54,1.43-.14.51-.39.89-.81,1.16-.27.18-.54.38-.83.51-.41.18-.65.49-.87.87-1.25,2.18-1.58,4.59-1.39,7.09.24,3.08.58,6.16.85,9.24.25,2.93.58,5.85,1.1,8.74.49,2.75,1.12,5.46,1.92,8.13.19.65.4,1.29.6,1.94.04-.08.03-.15.02-.22-.72-3.03-1.24-6.09-1.62-9.19-.59-4.87-.65-9.76-.31-14.64.29-4.12.8-8.21,1.51-12.26.17-.99.35-1.98.53-2.97Z"/>
      <path class="cls-3" d="m1243.26,1236.11c-5.41,4.98-14.03,5.55-19.85,1.37-6.23,7.49-11.77,15.59-15.98,24.85-.65,1.44-1.09,3.02-1.88,4.35-.57.97-1.54,1.63-2.34,2.43-.07-1.12-.48-2.35-.13-3.35.97-2.8,2.09-5.6,3.44-8.24,2.74-5.36,4.13-10.9,4.76-16.85-6.9,1.78-12.68.12-17.61-4.11-2.33-2-4.25-4.5-5.55-8.28,8.67-.25,16.49.77,23.09,6.44-.13-5.37-1.47-9.76-2.99-13.99-.76-2.12-1.98-3.93-3.12-5.75-3.21-5.11-5.29-11.02-6.65-17.6,4.11-.38,8.89,4.09,9.85,9.67.41,2.36-.2,5.19-.23,7.78-.01,1.05.11,2.17.49,3,2.55,5.66,4.85,11.48,5.45,18.3,1.88-4.54,3.86-9.07,5.59-13.69.48-1.27.06-2.79.33-4.19,1.13-5.72,5.06-12.73,9.94-17.49-.51,3.17-.73,5.81-1.4,8.37-1.19,4.55-3.09,8.72-6.48,11.96-.7.67-1.12,2.06-1.45,3.17-1.86,6.3-3.64,12.61-5.64,19.55.81-.83,1.24-1.27,1.67-1.7,5.45-5.51,10.91-11.01,16.35-16.56.9-.92,1.61-2.14,2.52-3.03,5.17-5.07,10.71-6.82,17.04-6.92-4.66,5.84-9.33,9.72-14.94,9.84-2,.04-3.53.69-5.12,2.38-1.64,1.74-3.35,3.38-5.61,5.65,6.4-1.22,11.73-.55,16.45,2.63Z"/>
      <path class="cls-3" d="m1144.18,1201.29c.88-3.17,1.76-6.35,2.63-9.52,1.3-4.73,4.57-9.49,13.06-13.53,3.43-1.63,9.6-3.43,12.39-3.13,3.22.34,5.74,2.59,5.64,4.55-.28,5.4-6.72,11.06-15.74,15.47-15.78,7.7-19.99,14.5-16.77,22.27,2.58,6.22,2.13,13.3,3.04,20.16,2.48-4.5,4.48-8.84,7.38-13.21,3.17-4.77,7.7-9.68,17.08-13.02,4.19-1.49,10.33-2.55,14.06-2.25,5.5.43,3.68,3.82.58,6.36-9.11,7.46-18.28,14.97-28.66,22.15-7.52,5.2-11.48,9.67-11.47,14.97.01,6.32-2.5,13.13-2.86,19.75,1.4-2.42,2.35-4.85,4.31-7.26,4.46-5.47,9.27-10.94,14.28-16.39,1.2-1.3,3.55-2.64,5.74-3.77,4.84-2.52,10.2-4.08,14.91-3,4.59,1.05,5.45,3.72,1.91,6.6-6.35,5.17-13.75,10.17-20.93,15.19-2,1.4-4.75,2.61-7.2,3.89-10.42,5.45-19.58,11.03-21.91,17.89-.67,1.97-3.06,4.14-4.66,6.22-.93.04-1.86.09-2.79.13.59-1.59.72-3.18,1.87-4.77,2.9-4.02,2.52-7.22-1.36-9.63-8.51-5.28-17.31-10.43-25.62-15.8-2.99-1.93-6.25-4.01-6.89-6.65-.42-1.77,2.58-5.41,5.85-6.79,3.63-1.53,10.5-2.44,13.84-1.89,10.16,1.67,14.03,6.55,16.09,11.86,2.12,5.46,2.98,11.27,5.14,16.95,1.65-9.92,5.55-20.36,4.01-29.53-.78-4.63-10.93-7.22-17.76-10.24-3.62-1.6-9.93-1.7-13.68-3.24-4.17-1.71-7.7-3.97-9.86-6.57-2.32-2.81,1.24-6.37,7.45-9.2,6.06-2.77,12.57-3.46,17.21-2.1,5.51,1.61,10,3.89,16.54,5.54-1.45-5.78-2.66-11.63-4.54-17.3-.35-1.04-2.99-1.83-5.29-1.92-8.2-.32-17.22.21-24.93-.55-6.36-.62-12.25-2.1-16.47-4.19-2-.99-1.22-4.68,1.25-6.39,2.42-1.68,9.07-3.22,13.01-3.4,10.11-.46,15.77,2.45,20.28,5.92,3.03,2.32,6.16,4.6,10.29,6.5-2.8-13.46-1.06-28.21-20.15-36.61-3.31-1.45-6.1-3.36-7.62-5.56-.85-1.22.59-4.39,2.46-5.08,3.4-1.27,9-2.23,11.76-1.76,12.25,2.08,19.89,6.85,17.4,14.59-4.51,13.97,3.87,24.9,3.63,37.8.69-.17,1.38-.34,2.07-.51Z"/>
      <path class="cls-3" d="m1308.52,1020.6c-1.89,6.02-1.32,12.23-6.07,17.07-2.44,2.49-4.03,6.07-5.21,9.43-.72,2.05-.27,4.7.22,6.95,1.1,5.05,2.56,10.02,3.88,15.02.41-.05.82-.09,1.23-.14,0-2.43.04-4.87,0-7.3-.1-5.45-.62-10.94-.18-16.35.2-2.42,1.87-5.1,3.64-6.92,4.38-4.52,8.42-8.82,8.92-15.76.27-3.85,2.29-7.67,3.99-11.29,2.08-4.41,4.7-8.57,6.98-12.89,1-1.89,1.81-3.9,2.54-5.92.51-1.41.74-2.92,1.09-4.39l.91.1c.08.92-.08,1.97.29,2.74,1.05,2.15,1.85,4.83,3.62,6.13,2.66,1.97,4.24,4.22,5.38,7.22,1.02,2.7,2.79,5.11,4.09,7.71,1.45,2.9,2.83,5.85,4.04,8.86.49,1.22.45,2.65.82,5.12,4.48-2.69,8.32-5.14,12.3-7.35,3.06-1.7,6.28-3.12,9.43-4.65,1.31-.63,2.63-1.23,3.95-1.85.91-.43,1.84-1.32,2.7-1.24,5.11.46,8.89-2.38,12.89-4.78,1.42-.86,3.03-1.42,4.77-2.21.12,1.07.23,1.43.15,1.48-4.43,2.81-4.77,7.2-5.17,11.9-.46,5.39-1.78,10.71-2.74,16.06-.06.33-.13.74-.35.96-5.6,5.38-6.73,14.75-15.7,17.24-2,.56-3.8,2.57-5.24,4.28-2.45,2.91-5.66,3.82-9.08,5.01-5.07,1.77-9.97,4.23-14.54,7.06-1.56.97-1.88,3.94-2.81,6.09.63.32,1.16.43,1.39.74.73.97,2.01,2.16,1.82,3-.19.88-1.73,1.7-2.85,2.07-1.27.42-2.72.31-4.09.43,0,.42.02.83.03,1.25,1.22,0,2.62.39,3.61-.08,2.18-1.04,3.74-.5,4.34,1.55.29.97-.39,2.86-1.23,3.41-1.89,1.24-3.11-.29-4.06-1.85-.06-.1-.15-.17-.23-.25-6.65,3.61-8.13,10.97-12.44,16.54,5.58.71,7.89,5.25,11.37,8.19.93.79,1.62,1.95,2.18,3.06,2.45,4.79,6.31,7.67,11.17,10.04,6.25,3.06,10.42,8.1,9.94,15.82-.08,1.27.81,2.71,1.52,3.91,1.43,2.4,3.22,4.59,4.55,7.04,1.51,2.77,2.7,5.72,3.97,8.62.24.55.2,1.22.37,2.36-3.15-1.8-5.7-3.75-8.58-4.76-2.96-1.03-6.24-1.13-9.37-1.66-.32-.06-.76-.2-.9-.45-2.52-4.18-7.19-4.26-11.03-5.99-5.34-2.39-9.31-5.96-9.9-12.48-.17-1.89-2-4.05-3.67-5.28-2.72-2.02-4.46-4.11-5.06-7.66-.36-2.18-2.57-4.05-4.33-6.63-2.36,6.79-6.99,44.99-6.76,57.81.28,15.64,1.92,31.25,3.01,46.87.19,2.79.6,5.59-3.14,6.75-3.31-22.56-1.89-45.25-3-68.27-2.73,2.59-5.02,5.22-7.76,7.25-3.8,2.82-7.93,5.2-11.94,7.74-1.23.78-2.51,1.49-3.79,2.21-1.97,1.11-3.84,2.82-5.94,3.18-3.99.67-6.87,2.25-8.24,6.17-.19.53-.48,1.02-.72,1.52-.38-.2-.75-.39-1.13-.59.16-1.2.13-2.46.52-3.58,1.33-3.89,2.14-7.72.02-11.61-.26-.48-.47-1.19-.31-1.66,2.12-6.15-1.07-13.33,3.77-19.02.73-.86.79-2.67.55-3.92-.7-3.65.9-6.48,2.89-9.17,3.36-4.56,6.9-8.99,10.23-13.58,1.54-2.11,3.08-3.94,5.94-4.11.88-.05,1.79-.45,2.57-.89,4.07-2.29,8.22-3.45,13.03-.66-.42-8.36-.81-16.08-3.06-23.26-1.2,1.62-2.07,3.28-3.42,4.3-.35.27-2.19-1.41-3.34-2.19,1.12-1.56,2.23-3.12,3.71-5.18-1.37-1.46-3.34-3.56-5.4-5.77-2.93,3.93-6.06,7.56-8.52,11.6-2.48,4.07-5.53,7.23-9.87,9.16-1.14.51-2.43.88-3.36,1.67-8.58,7.18-18.56,7.36-28.98,6.37-2.77-.26-5.7,1-8.53,1.66-2.4.56-4.83,1.09-7.14,1.93-2.46.89-4.8,2.11-7.55,3.34,1.12-2.47,2.21-4.81,3.24-7.18,1.45-3.34,2.76-6.74,4.29-10.04.98-2.11,1.87-4.47,3.46-6.05,4.18-4.16,8.45-8.33,13.19-11.79,4.86-3.55,10.32-6.27,15.52-9.34.79-.46,1.62-1.13,2.46-1.18,6.22-.32,12.59-1.43,18.63-.48,6.06.95,11.54,4.34,15.08,9.92.42.66,1.01,1.2,1.53,1.81.84-2.18,2.24-4.23,2.27-6.3.03-2.22-.09-5.16-3.59-6-.24.96-.22,2.02-.73,2.59-.76.85-2.02,2.01-2.86,1.86-1.13-.2-2.05-1.53-3.06-2.37.87-.94,1.59-2.11,2.64-2.76,1.14-.7,2.57-.92,3.88-1.36-.08-.33-.17-.66-.25-1-1.1.22-2.22.68-3.29.59-1.19-.1-3.3-.63-3.33-1.09-.1-1.39.38-2.99,1.16-4.16.24-.36,2.35.19,3.33.78,1.09.66,1.87,1.84,2.78,2.8.29-.16.59-.32.88-.48-1.34-3.53-2.69-7.07-3.69-9.7-6.25,1.18-11.58,2.18-16.91,3.18-.22.04-.46.06-.68.06-5-.11-13.99-8.28-14.99-13.22-.83-4.07-1.85-8.17-3.4-12.01-.57-1.41-2.9-2.11-4.23-3.95,1.18.19,2.36.45,3.55.55,4.38.39,8.79,1.19,13.15.98,6.07-.29,10.81,2.09,15.19,5.82,1.72,1.47,3.5,2.87,5.96,4.88.72-5.08,1.19-9.05,1.89-12.98.21-1.17.82-2.47,1.66-3.3,3.13-3.11,6.41-6.07,9.69-9.02.34-.31,1.01-.25,2.03-.47Zm11.04,79.1c.09.41.18.83.26,1.24,1.26-.74,3.51-1.38,3.6-2.23.46-4.63,1.05-9.38-1.29-13.78-3.64-6.8-7.81-13.37-8.75-21.23-.44.02-.66,0-.87.04-2.55.57-5.42.61-7.58,1.87-2.9,1.69-.62,5-1.19,7.4-1.36,5.72,2.38,10.2,2.99,15.44.55-1.26.45-2.61.9-3.74.48-1.18,1.31-2.68,2.34-3.04.78-.28,2.89.88,3.01,1.63.17,1.03-.79,2.43-1.6,3.39-.75.89-1.95,1.4-2.96,2.07.15.28.3.55.45.83,1.17-.3,2.32-.75,3.51-.86,2.84-.27,4.83,3.37,2.57,4.58-1.47.79-3.89-.21-6.51-.46,0,1.42-.17,3.48.03,5.5.85,8.66,1.81,17.31,2.72,25.96,1.06-5.11,6.02-9.21,4.19-15.08-.25.15-.5.3-.76.45-1.05-.92-2.1-1.85-3.15-2.77,1.39-1.17,2.78-2.35,3.84-3.25-.35-1.36-1.03-3.03-1.07-4.72-.01-.54,1.8-1.73,2.51-1.55,1.06.27,1.88,1.49,2.81,2.3Zm12.85-15.57c-.51-.25-1.02-.5-1.52-.75-1.94,3.89-7.24,6.2-4.84,13.1,2.39-4.63,4.37-8.49,6.36-12.35Z"/>
      <path class="cls-3" d="m1495.45,1115.59c.46-.93,1.07-1.66,2.12-1.88.33-.07.67-.03,1.01-.03.08,0,.17.01.24-.01.96-.35,1.92-.35,2.89-.09.04,0,.07.02.11.03,0,0,0,0,.04-.02-.22-.18-.43-.37-.65-.53-.64-.46-1.28-.91-1.93-1.35-.42-.29-.9-.28-1.38-.2-.11.02-.21.05-.31.07-.3.06-.51.19-.65.5-.23.51-.71.78-1.21,1-.34.14-.69.27-1.03.4.06-.82.62-1.8,1.63-1.98.16-.03.32-.09.48-.15.36-.12.71-.24,1.08-.37-.06-.03-.12-.06-.18-.09-1.18-.52-2.42-.84-3.7-1.01-.08-.01-.17.02-.25.06-.25.14-.5.29-.75.44-1.57.92-3.1.79-4.6-.16-.06-.04-.12-.07-.17-.11-.06-.04-.11-.08-.2-.16.26-.24.5-.48.76-.69,1.66-1.3,3.41-1.02,4.89-.02.12.08.28.14.42.17.22.05.45.08.73.12-.25-.2-.47-.37-.68-.54-.67-.53-1.23-1.16-1.73-1.85-.06-.08-.14-.16-.23-.2-1.3-.52-1.97-1.5-2.12-2.87-.04-.36-.02-.73-.01-1.1.38.56.96.86,1.48,1.23.82.58,1.25,1.36,1.2,2.38,0,.09.03.2.08.27,1.11,1.55,2.57,2.65,4.35,3.32.35.13.69.28,1.06.43-.15-.27-.3-.51-.43-.77-.3-.59-.51-1.2-.57-1.86,0-.08-.05-.15-.09-.22-.38-.55-.63-1.13-.48-1.82.1-.49.39-.88.77-1.22.22.32.36.66.46,1.02.18.67.16,1.33-.11,1.98-.04.1-.04.22-.03.33.09.79.4,1.49.83,2.14.19.29.39.58.62.83.19.2.44.35.67.51.65.47,1.31.93,1.97,1.4-.02-.04-.03-.08-.05-.13-.36-.67-.6-1.38-.69-2.14-.01-.09-.07-.17-.11-.25-.16-.27-.35-.52-.47-.81-.39-.94-.15-1.77.52-2.5.12-.13.14-.21.05-.37-.84-1.43-1.65-2.88-2.61-4.23-.69-.97-1.45-1.89-2.35-2.67-.18-.15-.42-.24-.65-.33-1.86-.7-3.7-.68-5.52.12-.11.05-.18.05-.28-.04-.72-.62-1.56-.87-2.5-.77.36-.31,2.06-.85,3.13-.99,1.11-.15,2.21-.04,3.29.27-.03-.02-.05-.04-.08-.06-1.79-.92-3.7-1.46-5.68-1.79-1.39-.23-2.8-.4-4.21-.53-.49-.05-1,.06-1.5.12-.89.11-1.76.28-2.59.63-.2.09-.39.2-.59.29-.98.42-1.9.36-2.72-.38-.04-.03-.12-.05-.16-.03-.82.36-1.66.35-2.52.19-1.38-.25-2.64-.83-3.86-1.51-.27-.15-.53-.32-.8-.48,0-.02,0-.04,0-.06.6-.21,1.19-.43,1.79-.62,1.25-.39,2.52-.67,3.83-.64.66.02,1.3.11,1.9.43.04.02.13,0,.18-.02.31-.2.62-.41.93-.6.5-.3,1.03-.34,1.55-.08.69.34,1.35.73,2.04,1.05.87.41,1.74.8,2.64,1.14.38.14.82.14,1.24.19,1.71.19,3.41.45,5.08.9.02,0,.05,0,.1.01-.21-.13-.4-.24-.57-.37-.12-.08-.23-.18-.32-.29-.18-.21-.23-.46-.12-.72.11-.26.32-.39.6-.42.5-.05.92.15,1.31.45.16.12.3.29.46.42.05.04.14.07.18.05.79-.38,1.47-.09,1.93.64.19.3.37.61.58.9.16.23.4.34.69.29.37-.07.62.11.79.41.14.25.27.51.36.79.23.66.56,1.25,1.08,1.75,1.21,1.18,2.13,2.58,2.99,4.03.74,1.24,1.46,2.49,2.18,3.74.02.04.05.08.1.11-.01-.05-.03-.1-.04-.15-.65-1.94-1.03-3.94-1.18-5.98-.07-.95-.43-1.82-.89-2.64-.39-.69-.87-1.3-1.42-1.87-.07-.07-.17-.13-.26-.17-.58-.23-1.11-.53-1.61-.9-.84-.63-1.23-1.52-1.37-2.53-.02-.11-.02-.22-.03-.35.74.16,1.39.47,1.96.95.67.58,1.15,1.29,1.46,2.12.13.36.31.67.57.95.62.67,1.11,1.42,1.49,2.25,0,.02.03.04.05.08.03-.5.04-.98.09-1.46.06-.64.13-1.27.22-1.91.03-.2,0-.34-.13-.51-1.08-1.39-1.2-2.87-.4-4.43.08-.16.17-.31.29-.51.22.28.43.52.61.78.6.89.93,1.85.77,2.94-.07.48-.25.92-.49,1.34-.07.12-.13.26-.15.4-.18,1.12-.28,2.25-.3,3.38,0,.03,0,.06,0,.1.19-.4.33-.79.55-1.15.34-.56.72-1.09,1.07-1.64.04-.06.08-.12.09-.18.21-1.76,1.24-2.81,2.87-3.36.08-.03.17-.05.29-.08-.08.17-.15.3-.22.44-.27.57-.56,1.13-.78,1.71-.26.66-.68,1.14-1.33,1.4-.25.1-.44.25-.6.46-.85,1.12-1.51,2.33-1.76,3.73-.14.74-.06,1.48.04,2.21.36,2.57,1.09,5.03,2.3,7.34.64,1.22,1.42,2.35,2.25,3.45.9,1.19,1.81,2.37,2.76,3.51,1.13,1.35,2.36,2.61,3.7,3.76,1.1.94,2.21,1.86,3.35,2.75.82.64,1.7,1.21,2.55,1.8,0,0,.02,0,.09.02-.08-.08-.13-.13-.18-.17-2.54-2.37-4.57-5.09-5.88-8.32-.25-.62-.44-1.26-.66-1.88-.06-.18-.13-.35-.23-.51-1.3-2.21-2.43-4.5-3.07-7-.6-2.38-.72-4.79-.18-7.19.18-.82.55-1.59.78-2.4.39-1.39,1.05-2.66,1.75-3.91.1-.17.18-.36.27-.54,0,0,.01,0,.02,0,.11.44.2.88.32,1.31.4,1.5.93,2.96,1.57,4.38,1,2.22,1.23,4.51.69,6.87-.26,1.14-.58,2.28-.85,3.42-.4,1.69-.59,3.4-.65,5.14,0,.09.01.19.04.28.67,2.32,1.75,4.43,3.17,6.38,1.18,1.62,2.54,3.06,4.05,4.38,1.54,1.34,3.25,2.4,5.08,3.29,2.97,1.45,6,2.72,9.16,3.7.28.09.56.16.83.24.2.06.28.17.24.32-.04.15-.17.21-.37.15-1.54-.43-3.05-.95-4.54-1.53-3.35-1.29-6.56-2.86-9.64-4.68-.42-.25-.91-.39-1.36-.6-1.89-.87-3.66-1.94-5.37-3.11-2.66-1.82-5.03-3.97-7.33-6.21-.97-.94-1.95-1.87-2.95-2.79-.69-.64-1.55-.96-2.47-1.13-.75-.13-1.49-.06-2.2.23-.11.04-.21.12-.29.2-.26.26-.51.52-.75.79-.25.28-.57.43-.93.49-.48.08-.95.04-1.45-.07Zm6.03-8.12s-.02,0-.02,0c0,.05,0,.1.02.14.1.3.18.6.31.89.13.29.17.58.07.88-.06.2-.11.4-.2.59-.13.25-.12.51-.07.77.27,1.54,1.06,2.78,2.16,3.85,1.35,1.31,2.74,2.58,4.09,3.88,1.29,1.24,2.61,2.44,4.01,3.54,1.33,1.05,2.72,2.03,4.17,2.91.35.21.71.42,1.06.63-.01-.05-.04-.08-.08-.11-1.55-1.08-3.03-2.26-4.44-3.53-2.23-1.99-4.2-4.2-5.99-6.59-1.5-2.01-2.89-4.11-4.16-6.27-.31-.53-.62-1.06-.93-1.59Z"/>
      <path class="cls-3" d="m1539.48,1042.75c1.81,0,3.41.42,4.48,2,.33.49.51,1.11.76,1.66.06.13.1.29.19.39,1.22,1.32,1.89,2.93,2.15,4.77,0,.07.02.14.03.21,0,0,.01.01.06.05.14-.52.3-1.02.4-1.53.29-1.44.57-2.89.84-4.34.18-.95-.18-1.73-.63-2.48-.1-.16-.22-.31-.33-.46-.31-.45-.66-.71-1.26-.68-.99.04-1.75-.54-2.44-1.2-.47-.45-.9-.93-1.36-1.4,1.37-.58,3.33-.44,4.32,1.11.16.25.37.46.57.69.44.5.89.99,1.34,1.49,0-.12.02-.25.02-.38.02-2.41-.34-4.74-.94-7.02-.04-.14-.15-.27-.26-.36-.4-.31-.81-.6-1.22-.9-2.57-1.87-3.43-4.54-2.93-7.84.02-.13.04-.26.06-.38.03-.13.06-.25.11-.46.56.24,1.12.43,1.64.71,3.23,1.71,4.02,4.87,3.43,8.17-.05.28-.03.58.02.85.07.42.19.82.31,1.32.14-.59.26-1.08.39-1.58.39-1.56,1.01-3.02,1.77-4.42.09-.16.16-.37.16-.56-.07-2.6,1.04-4.54,3.13-5.91.55-.36,1.15-.64,1.75-.92-.63,1.1-.71,2.31-.94,3.49-.37,1.85-1.31,3.2-2.99,3.96-.15.07-.3.21-.38.37-1.72,3.14-2.48,6.47-2.31,10.01.03.69.03,1.39.05,2.12.33-.48.61-.93.93-1.35.73-.99,1.58-1.84,2.6-2.49.12-.07.21-.21.28-.34.62-1.09,1.38-1.99,2.59-2.31.86-.23,1.68-.08,2.49.29-.35.63-.81,1.14-1.31,1.6-.95.85-2.03,1.35-3.25,1.44-.19.01-.39.11-.55.22-1.2.79-2.12,1.89-2.87,3.14-.33.55-.66,1.12-.9,1.72-.19.48-.25,1.02-.35,1.54-.3,1.48-.59,2.95-.88,4.44.05-.05.11-.12.16-.2.84-1.15,1.8-2.14,2.96-2.92.13-.09.23-.25.32-.39.32-.49.59-1.02.97-1.46,1.24-1.43,2.74-1.72,4.37-1.19.29.09.44.05.62-.22,1.72-2.58,3.48-5.12,4.99-7.84,1.08-1.95,2.03-3.97,2.65-6.12.12-.43.1-.91.08-1.36-.16-3.68-1.48-6.75-4.03-9.14-.16-.15-.2-.27-.14-.5.49-1.71.31-3.32-.49-4.82.74.34,2.8,2.74,3.77,4.42,1.01,1.74,1.6,3.66,1.85,5.72.01-.06.03-.12.03-.18.23-3.75-.22-7.4-1.07-10.97-.6-2.52-1.31-5.01-2.06-7.48-.26-.86-.79-1.63-1.24-2.41-.8-1.39-1.68-2.72-2.82-3.82-.28-.27-.59-.49-.87-.76-1.35-1.3-1.9-2.88-1.28-4.86.03-.09,0-.24-.06-.3-1.15-1.07-1.72-2.5-2.06-4.05-.55-2.52-.51-5.1-.26-7.7.06-.58.14-1.16.21-1.73.03-.01.06-.03.1-.04.75.83,1.52,1.64,2.24,2.49,1.49,1.77,2.82,3.66,3.68,5.89.43,1.11.73,2.27.63,3.52,0,.09.08.22.16.28.53.36,1.09.69,1.61,1.07.83.59,1.26,1.44,1.2,2.53-.07,1.43-.23,2.86-.27,4.28-.05,1.79-.08,3.58,0,5.36.03.76.34,1.5.56,2.23.88,3.03,1.64,6.09,2.08,9.24,0,.04.03.08.05.18.07-.46.11-.86.2-1.26.05-.26.13-.53.24-.78.21-.48.57-.77,1.07-.8.5-.03.86.22,1.09.66.42.8.39,1.67.19,2.55-.09.38-.25.74-.36,1.11-.03.11-.02.29.04.35,1.17,1.01,1.16,2.39.31,3.76-.35.57-.72,1.13-1.05,1.71-.26.46-.27.96.01,1.4.37.57.26,1.13-.11,1.66-.31.44-.64.87-1.01,1.25-.91.94-1.61,1.96-2.06,3.25-1.05,3-2.67,5.69-4.39,8.32-1.48,2.26-3,4.49-4.5,6.73-.05.08-.1.15-.11.26.07-.06.14-.13.21-.19,2.67-2.68,5.61-4.96,8.79-6.89,1.48-.9,2.62-2.21,3.62-3.66.84-1.21,1.49-2.53,2.01-3.92.07-.18.1-.39.09-.58-.03-1.15.08-2.3.33-3.43.43-1.93,1.58-3.31,3.11-4.37.17-.12.34-.22.54-.34.27,1.37.22,2.72-.17,4.06-.46,1.6-1.28,2.99-2.39,4.18-.49.52-.86,1.07-1.13,1.74-.64,1.59-1.52,3.03-2.59,4.34-.03.03-.05.08-.09.15.83-.37,1.61-.74,2.41-1.06,1.07-.43,2.14-.82,3.22-1.2.34-.12.55-.27.73-.63,1.48-2.94,3.78-4.36,6.83-4.31.31,0,.61.04,1.02.06-.3.6-.54,1.14-.83,1.66-1.01,1.73-2.32,3.08-4.19,3.69-.82.27-1.65.33-2.49.28-.24-.02-.51,0-.74.08-1.92.62-3.8,1.38-5.63,2.28-.05.02-.09.05-.16.09.77-.01,1.51-.09,2.23-.03,1.13.1,2.25.3,3.37.45.11.02.24.04.35,0,2.97-1.1,5.37-.23,7.38,2.04.1.11.19.24.33.42-.32,0-.59-.01-.86,0-1.1.02-2.2,0-3.29.09-1.24.11-2.3-.21-3.18-1.08-.33-.33-.7-.53-1.15-.62-2.39-.51-4.78-.61-7.21.11-1.29.38-2.42,1.11-3.53,1.89-3.89,2.72-7.33,5.96-10.19,9.88-1.52,2.08-2.79,4.31-3.98,6.6-1.29,2.48-2.55,4.97-3.72,7.51-1.39,3-2.56,6.1-3.47,9.29-.75,2.61-1.46,5.23-2.09,7.87-.46,1.9-.76,3.84-1.13,5.76,0,.02,0,.05.03.17.07-.2.11-.32.15-.44,2.04-6.19,5.01-11.83,9.29-16.68.82-.92,1.71-1.77,2.57-2.66.24-.25.47-.51.67-.8,2.65-3.99,5.54-7.77,9.12-10.89,3.4-2.97,7.19-5.14,11.43-6.22,1.44-.37,2.94-.38,4.39-.67,2.51-.49,5-.42,7.5-.28.35.02.7,0,1.05,0,0,0,.01.02.03.03-.63.54-1.27,1.06-1.89,1.62-2.13,1.91-4.12,3.99-5.95,6.22-2.87,3.5-6.38,5.77-10.56,6.8-2.02.5-4.06.91-6.08,1.39-2.99.72-5.88,1.8-8.7,3.13-.15.07-.29.18-.42.29-3.26,3.03-5.9,6.58-8.05,10.55-1.79,3.3-3.16,6.77-4.22,10.38-1.08,3.67-1.6,7.4-1.76,11.2-.27,6.16-.2,12.29.42,18.37.05.53.13,1.06.19,1.59.05.38-.07.61-.34.67-.27.05-.45-.12-.5-.49-.39-2.93-.59-5.88-.7-8.84-.25-6.66.04-13.32.83-19.99.11-.91,0-1.84.02-2.77.08-3.87.57-7.72,1.26-11.55,1.08-5.94,2.88-11.68,4.89-17.37.84-2.4,1.65-4.81,2.43-7.22.55-1.69.47-3.39.1-5.06-.31-1.37-.94-2.55-1.9-3.49-.14-.14-.33-.25-.52-.32-.59-.22-1.19-.42-1.8-.61-.62-.2-1.09-.59-1.44-1.15-.46-.73-.73-1.56-.9-2.48Zm17.24,3.41s-.02-.02-.03-.03c-.07.05-.15.09-.22.15-.41.41-.85.79-1.21,1.24-.38.47-.81.75-1.36.84-.36.06-.72.15-1.08.15-.49,0-.9.22-1.29.51-2.28,1.71-3.73,4.07-4.68,6.77-1.17,3.33-2.24,6.7-3.39,10.04-1.09,3.17-2.11,6.37-2.91,9.63-.76,3.09-1.37,6.22-1.78,9.37-.1.77-.18,1.53-.27,2.3.08-.07.1-.14.12-.22.66-3.49,1.53-6.93,2.58-10.33,1.65-5.36,3.83-10.49,6.43-15.44,2.19-4.17,4.6-8.21,7.19-12.12.63-.96,1.27-1.91,1.9-2.86Z"/>
      <path class="cls-3" d="m1518.42,1130.59s-.3-31.18,21.92-44.2c22.22-13.02,37.26-20.87,37.26-20.87,0,0-1.74,21.63-3.84,30.87-2.1,9.24-20.98,40.33-55.34,34.2Z"/>
      <path class="cls-3" d="m1536.79,1135.04s-44.44,39.23-70.92,6.09c-26.48-33.14-41.69-30.86-41.69-30.86,0,0,59.2-18.79,112.6,24.77Z"/>
      <path class="cls-3" d="m1015.87,1318.6s-41.13,1.65-59.07-19.41c-17.94-21.05-30.72-24.83-30.72-24.83,0,0,50.91,10.86,89.8,44.24Z"/>
      <path class="cls-3" d="m994.52,1334.4s54.95-36.36,27.54-74.66c-27.41-38.3-20.47-54.02-20.47-54.02,0,0-37.58,58.29-7.07,128.69Z"/>
      <polygon class="cls-3" points="1313.64 1136.61 1323.85 1237.57 1309.92 1239.86 1308.51 1138.51 1313.64 1136.61"/>
      <path class="cls-3" d="m1323.85,1111s-14.73,28.12-7.79,57.62c6.94,29.5-4.75-39.62-4.75-39.62l8.81-18.84,3.72.84Z"/>
      <path class="cls-3" d="m1292,1086.11s.41-.15,1.12.11c2.22.82,7.33,5.71,11.45,32.11,5.43,34.78,4.7-2.71,4.7-2.71,0,0-2.09-28.04-14.68-33.27-12.59-5.24-2.59,5-2.59,5"/>
    </g>
  </g>
</svg>