<?xml version="1.0" encoding="utf-8"?>
<!-- Generator: Adobe Illustrator 24.3.0, SVG Export Plug-In . SVG Version: 6.00 Build 0)  -->
<svg version="1.1" id="图层_1" xmlns="http://www.w3.org/2000/svg" xmlns:xlink="http://www.w3.org/1999/xlink" x="0px" y="0px"
	 viewBox="0 0 1920 180" style="enable-background:new 0 0 1920 180;" xml:space="preserve">
<style type="text/css">
	.st0{fill:#7A6A56;}
	.st1{fill:#CBE8ED;}
	.st2{fill:#FFFEF3;stroke:#F7D9A1;stroke-width:4.573;stroke-miterlimit:10;}
	.st3{fill:#F7D9A1;}
	.st4{fill:#F8D449;}
	.st5{fill:none;stroke:#F8D449;stroke-width:3.0485;stroke-miterlimit:10;}
	.st6{fill:none;stroke:#68A46B;stroke-width:8.0659;stroke-miterlimit:10;}
	.st7{fill:#65A064;}
	.st8{fill:none;stroke:#68A46B;stroke-width:5.7736;stroke-miterlimit:10;}
</style>
<g id="图层_1_1_">
	<g>
		<path class="st0" d="M119.8,117.8c146.8-5.2,293.6-9.3,440.4-12.5s293.6-5.2,440.4-6s293.6,0,440.4,4c73.4,2,146.8,4.8,220.2,10.1
			c36.7,2.4,73.4,5.6,109.7,10.1c18.1,2,36.3,4.8,54.4,8.1s36.3,7.3,53.6,12.9c-17.7-5.2-35.5-8.5-53.6-11.3s-36.3-4.8-54.4-6.5
			c-36.7-3.2-73-5.2-109.7-6.5c-73.4-2.8-146.4-3.2-219.8-3.2c-146.8,0.8-293.2,4.8-440,10.1c-146.4,5.6-293.2,12.5-439.6,20.2
			c-146.4,8.1-292.8,16.5-439.2,26.6l0,0c-15.7,1.2-29-10.9-30.2-26.2c-1.2-15.3,10.9-29,26.2-30.2
			C119,117.8,119.4,117.8,119.8,117.8z"/>
	</g>
	<g>
		<path class="st1" d="M1856,124.7c-0.8-0.4-1.2-0.8-1.6-1.6c-0.8-0.4-2-1.2-2.8-1.6c-2.4-1.2-4.4-2.4-7.3-3.2
			c-2.4-0.8-5.2-2-8.1-2.8s-5.6-1.6-8.5-2.4c-11.3-2.8-23-5.2-34.7-7.3c-23.8-4-47.6-6.9-71.8-9.3c-48-4.8-96.4-7.7-144.8-10.5
			c-96.8-4.8-194-7.3-290.8-8.9c-97.2-1.2-194-1.6-291.2-0.8c-48.4,0.4-97.2,1.2-145.6,2c-24.2,0.4-48.4,1.2-72.6,2
			s-48.4,1.6-72.6,3.6c24.2-2.4,48.4-3.6,72.6-4.8s48.4-2.4,72.6-3.2c48.4-2,97.2-3.2,145.6-4.4c97.2-2.4,194.4-3.6,291.2-4
			c97.2,0,194.4,0.8,291.6,4c48.4,1.6,97.2,4,146,8.1c24.2,2,48.8,4.4,73,8.1c12.1,1.6,24.2,4,36.7,6.9c3.2,0.8,6,1.6,9.3,2.4
			c3.2,0.8,6,2,9.3,3.2c3.2,0.8,6.5,2.8,9.7,4l4.8,3.2c1.6,1.2,3.6,2.8,5.2,4.4c3.6,3.6,4,9.7,0.4,13.3c-3.2,3.2-8.5,4-12.1,1.2
			L1856,124.7z"/>
	</g>
</g>
<g id="图层_2_1_">
	<path class="st2" d="M721.1,48l79-6.9c14.1-1.2,26.6,9.3,27.8,23.4l0,0c1.2,14.1-9.3,26.6-23.4,27.8l-79,6.9
		c-14.1,1.2-26.6-9.3-27.8-23.4l0,0C696.5,61.8,707,49.3,721.1,48z"/>
	<g>
		<path class="st3" d="M821.6,85.5c0,1.6,0.4,3.6,1.6,4.8c1.2,1.2,3.2,2,5.6,2.4c2,0.4,4.8,0.4,7.3,1.2c1.2,0.4,2,1.2,2.8,2.4
			c0.4,1.2,0.4,2.4,0.4,3.6c0-1.2,0-2.4-0.8-3.2s-1.6-1.6-2.8-1.6c-2-0.8-4.4-0.4-6.9,0c-2.4,0-5.2-0.4-7.7-2
			c-2.4-1.6-3.6-4.4-4-7.7L821.6,85.5z"/>
	</g>
	<g>
		<path class="st3" d="M830,63.4c0.4,1.2,1.2,2.4,2.4,2.8c1.2,0.8,2.8,0.4,4.4,0c1.6-0.4,3.6-1.6,5.6-1.6c1.2,0,2,0.4,2.8,1.2
			s1.2,1.6,1.2,2.8c-0.4-0.8-0.8-1.6-1.6-2.4c-0.8-0.4-1.6-0.4-2.4-0.4c-1.6,0.4-3.2,1.2-4.8,2.4c-1.6,0.8-4,2-6.5,1.2
			s-4.4-2.4-5.6-4.8L830,63.4z"/>
	</g>
	<g>
		<path class="st3" d="M798.6,39.2c0.4-0.4,1.2-1.2,2-2.4c0.4-1.2,0.8-2.4,1.2-3.6c0.4-2.4,0-5.2-0.4-7.7c1.2,2.4,2.4,4.8,2.8,7.7
			c0,1.6,0.4,2.8,0,4.4c-0.4,1.6-0.8,2.8-2,4.8L798.6,39.2z"/>
	</g>
	<g>
		<path class="st3" d="M804.2,92.4c-1.6,2-3.2,4.8-4,7.3s-1.6,5.6,0.4,8.1c-1.2-0.8-2-2.4-2.4-3.6c-0.4-1.6-0.4-3.2-0.4-4.8
			c0.4-3.2,1.2-6,2.4-9.3L804.2,92.4z"/>
	</g>
	<g>
		<path class="st3" d="M833.3,36.3c-2,0-2.4,2-2.4,3.6c-0.4,1.6-0.8,3.6-2.4,5.2c-1.6,1.2-3.6,2-5.6,2c-2,0.4-3.2,0.4-4,1.2l-2.4-4
			c1.2-0.4,2.4-0.8,3.2-0.8c1.2,0,2,0,2.8,0c1.6,0,3.2,0,4.4-0.8c1.2-0.4,2-2,2.8-3.6c0.4-0.8,0.8-1.6,1.2-2.4
			C831.6,36.3,832.4,36.3,833.3,36.3z"/>
	</g>
	<g>
		<path class="st3" d="M711.1,49.3c0-1.6-0.4-3.6-2-4.8c-1.2-1.2-3.2-2-5.6-2c-2,0-4.8,0-7.3-1.2c-1.2-0.4-2.4-1.2-2.8-2.4
			c-0.8-1.2-0.8-2.4-0.4-3.6c0,1.2,0,2.4,0.8,3.2s1.6,1.2,2.8,1.6c2,0.4,4.4,0,6.9,0c2.4,0,5.2,0,7.7,1.6c2.4,1.6,4,4.4,4.4,7.3
			L711.1,49.3z"/>
	</g>
	<g>
		<path class="st3" d="M737.3,44.8c0.8-0.4,1.6-1.6,2.4-2.4c0.8-0.8,1.2-2,1.6-3.2c0.4-1.2,0.4-2.4-0.4-3.6
			c-0.4-1.2-1.2-2.4-2.4-3.2c1.2,0.8,2.4,1.6,3.2,2.8s1.6,2.8,1.6,4.4c0,1.6-0.4,3.2-0.8,4.4c-0.4,1.6-1.2,2.8-2.4,4L737.3,44.8z"/>
	</g>
	<g>
		<path class="st3" d="M740.1,100.1c-0.4,0-1.6,0.8-2.4,1.2c-0.8,0.8-1.6,1.6-2.4,2.4c-1.2,2-2.4,4.4-2.8,6.5c0,1.2,0,2.4,0.4,3.6
			c0.4,1.2,0.8,2.4,0.8,4s-0.4,2.8-1.2,4s-2,2-2.8,2.4c1.6-1.6,4-4,3.2-6.5c-0.8-2-2.4-4.8-2.4-7.7s0.8-5.6,2-8.1
			c0.8-1.2,1.6-2.4,2.4-3.6c1.2-1.2,2-2,4-2.8L740.1,100.1z"/>
	</g>
	<g>
		<path class="st3" d="M762.3,93.6c2.8,1.6,4,3.6,4.8,6s0.4,4.8,0,6.9c-0.8,2.4-1.6,4-2,6c-0.4,0.8-0.4,2-0.4,2.8
			c0,1.2,1.2,1.6,2,0.8c-0.4,0.4-0.8,0.4-1.6,0.4s-1.2-0.8-1.2-1.2c-0.4-1.2-0.4-2.4,0-3.2c0-2,0.8-4.4,0.8-6c0-2,0-4-0.8-5.6
			s-2-2.8-3.2-3.2L762.3,93.6z"/>
	</g>
	<g>
		<path class="st3" d="M769.1,41.6c1.2-0.8,2.8-2.4,3.6-4s1.2-2.8,0.4-4.8l-1.2-2.8c-0.4-1.2-0.4-2.4-0.4-3.6c0.8-2,2-3.6,3.2-5.6
			c-0.8,2-2,3.6-2.4,5.6c-0.4,1.6,1.2,3.2,2.4,5.2c1.2,1.6,1.6,4.8,0.8,7.3c-0.8,2.4-2,4.4-4,6L769.1,41.6z"/>
	</g>
	<g>
		<path class="st3" d="M696.1,71c-0.8-0.8-2-2-3.2-2s-2.8,0.4-4.4,1.6c-1.6,1.2-3.2,2.4-5.2,3.2c-0.8,0.4-2,0.4-3.2,0
			c-0.8-0.4-1.6-1.2-2-2c1.2,1.6,3.2,2,4.8,0.8c1.6-0.8,2.8-2.4,4-3.6c1.6-1.6,3.2-2.8,5.6-3.2c2.4-0.4,4.8,0.4,6.9,2L696.1,71z"/>
	</g>
	<g>
		<path class="st3" d="M705.4,92.8c-0.4,0-1.6,0.8-2.4,1.6c-0.8,0.8-1.6,2-2,2.8c-1.2,2.4-1.6,4.8-2,7.7c-0.4-2.8-0.8-5.2-0.4-8.5
			c0.4-1.6,0.8-2.8,1.2-4.4c0.8-1.2,1.6-2.8,3.2-4L705.4,92.8z"/>
	</g>
	<g>
		<path class="st4" d="M805,74.3c-2.8,0.4-5.6,0-8.5-1.6c-2.8-1.2-5.2-2.8-7.3-4.8l0,0l-0.8-0.8l0.8-0.8c2-2.4,4-4.4,6.5-6
			s5.2-2.8,8.1-2.8c-2.8,0.4-5.2,2-7.3,4s-3.6,4.4-4.8,6.5v-1.6l0,0c1.6,2,3.6,4,5.6,5.6C799.4,73,802.2,74.3,805,74.3z"/>
	</g>
	<path class="st5" d="M777.6,77.1c-7.7,0.8-14.9-7.3-14.9-7.3s5.6-9.3,13.3-9.7c7.7-0.8,14.9,7.3,14.9,7.3S785.3,76.7,777.6,77.1z"
		/>
	<path class="st5" d="M749.4,78.7c-7.7,0.8-14.9-7.3-14.9-7.3s5.6-9.3,13.3-9.7c7.7-0.8,14.9,7.3,14.9,7.3S757,77.9,749.4,78.7z"/>
	<g>
		<path class="st4" d="M719.5,64.2c2.8-0.4,5.6,0,8.5,1.6c2.8,1.2,5.2,2.8,7.3,4.8l0,0l0.8,0.8l-0.8,0.8c-2,2.4-4,4.4-6.5,6
			s-5.2,2.8-8.1,2.8c2.8-0.4,5.2-2,7.3-4s3.6-4.4,4.8-6.5v1.6l0,0c-1.6-2-3.6-4-5.6-5.6C724.8,65.4,722.3,64.6,719.5,64.2z"/>
	</g>
	<path class="st6" d="M163,119.4c0,0,4-56.5,36.3-80.7"/>
	<path class="st7" d="M199.7,39.2c0,0-17.7,9.3-31.5,3.2c-13.7-6-18.6-25.4-18.6-25.4s17.7-9.3,31.5-3.2
		C195.2,19.8,199.7,39.2,199.7,39.2z"/>
	<path class="st7" d="M251.7,46.4c0,0-14.1,14.1-29.4,12.1c-14.9-2-25.4-19.4-25.4-19.4s14.1-14.1,29.4-12.1S251.7,46.4,251.7,46.4z
		"/>
	<path class="st8" d="M337.2,113.4c0,0,2.8-40.3,25.8-57.7"/>
	<path class="st7" d="M363.4,56.1c0,0-12.5,6.5-22.6,2c-9.7-4.4-13.3-18.1-13.3-18.1s12.5-6.5,22.6-2
		C360.2,42.4,363.4,56.1,363.4,56.1z"/>
	<path class="st7" d="M400.5,61.4c0,0-10.1,10.1-21,8.9s-18.1-13.7-18.1-13.7s10.1-10.1,21-8.9S400.5,61.4,400.5,61.4z"/>
</g>
</svg>
