<?xml version="1.0" encoding="utf-8"?>
<!-- Generator: Adobe Illustrator 24.3.0, SVG Export Plug-In . SVG Version: 6.00 Build 0)  -->
<svg version="1.1" xmlns="http://www.w3.org/2000/svg" xmlns:xlink="http://www.w3.org/1999/xlink" x="0px" y="0px"
	 viewBox="0 0 400 400" style="enable-background:new 0 0 400 400;" xml:space="preserve">
<style type="text/css">
	.st0{display:none;}
	.st1{display:inline;fill:#AB539B;stroke:#FFFFFF;stroke-width:3;stroke-miterlimit:10;}
	.st2{display:inline;fill:#002B42;}
	.st3{display:inline;}
	.st4{fill:#002B42;}
	.st5{fill:#FFFFFF;}
	.st6{display:inline;fill:none;stroke:#FFFFFF;stroke-width:2.0069;stroke-miterlimit:10;}
	.st7{fill:#CDE9EB;}
	.st8{clip-path:url(#SVGID_2_);}
	.st9{clip-path:url(#SVGID_4_);fill:#002B42;}
	.st10{clip-path:url(#SVGID_4_);}
	.st11{display:none;clip-path:url(#SVGID_4_);}
	.st12{fill:none;stroke:#FFFFFF;stroke-width:3;stroke-miterlimit:10;}
	.st13{display:inline;fill:#FFFFFF;}
	.st14{fill:none;stroke:#002B42;stroke-width:4.3665;stroke-miterlimit:10;}
	.st15{display:none;fill:#FFFFFF;}
	.st16{display:none;fill:none;stroke:#002B42;stroke-width:2.0069;stroke-miterlimit:10;}
	.st17{clip-path:url(#SVGID_4_);fill:#FFFFFF;}
	.st18{clip-path:url(#SVGID_4_);fill:#FFFFFF;stroke:#FFFFFF;stroke-width:3;stroke-miterlimit:10;}
	.st19{fill:#FFFFFF;stroke:#FFFFFF;stroke-width:0.9676;stroke-miterlimit:10;}
</style>
<g id="图层_9" class="st0">
	<rect x="17.5" y="28.5" class="st1" width="324" height="390"/>
</g>
<g id="菌" class="st0">
	<path class="st2" d="M107.3,272.5l23.2-20c4.1-3.5,10.9-3.1,15,1.1l0,0c4.1,4.1,4.2,10.4,0.1,14l-23.2,20c-4.1,3.5-10.9,3.1-15-1.1
		h0C103.2,282.3,103.2,276,107.3,272.5z"/>
	<g class="st3">
		<path class="st4" d="M148,261.4c0.1,0.2,0.4,0.5,0.7,0.6c0.3,0.2,0.6,0.3,0.9,0.4c0.7,0.1,1.5-0.1,2.2-0.5
			c0.3-0.2,0.8-0.5,1.2-0.7c0.4-0.2,0.9-0.4,1.3-0.5c0.5-0.1,1-0.1,1.4,0.1c0.4,0.2,0.8,0.6,0.9,1c-0.2-0.4-0.6-0.7-1-0.7
			c-0.4-0.1-0.8,0-1.2,0.1c-0.4,0.1-0.7,0.4-1.1,0.6c-0.3,0.3-0.6,0.5-1,0.9c-0.7,0.6-1.7,1.1-2.8,1.1c-0.5,0-1.1-0.1-1.6-0.3
			c-0.5-0.2-1-0.5-1.5-1L148,261.4z"/>
	</g>
	<g class="st3">
		<path class="st4" d="M145.1,253.4c0.1,0.1,0.4,0.3,0.6,0.3c0.2,0.1,0.5,0.1,0.7,0.1c0.5,0,1-0.4,1.3-0.9c0.4-0.5,0.8-1.3,1.5-1.7
			c0.3-0.2,0.7-0.3,1.1-0.3c0.4,0.1,0.7,0.3,0.9,0.5c-0.3-0.2-0.6-0.3-1-0.3c-0.3,0-0.6,0.2-0.8,0.4c-0.2,0.2-0.4,0.5-0.5,0.8
			c-0.1,0.3-0.2,0.6-0.4,1c-0.3,0.7-0.8,1.5-1.7,1.8c-0.4,0.2-0.9,0.3-1.4,0.2c-0.5,0-0.9-0.1-1.4-0.3L145.1,253.4z"/>
	</g>
	<g class="st3">
		<path class="st4" d="M129.8,253.5c0,0,0.1-0.2,0.1-0.4c0-0.2,0-0.4-0.1-0.6c-0.1-0.4-0.3-0.8-0.5-1.2c-0.2-0.4-0.5-0.8-0.9-1.1
			c-0.3-0.4-0.7-0.7-1.1-1c0.5,0.2,0.9,0.4,1.4,0.6c0.4,0.3,0.9,0.5,1.3,0.9c0.4,0.3,0.8,0.8,1.1,1.3c0.1,0.3,0.3,0.5,0.4,0.8
			c0.1,0.3,0.2,0.6,0.2,1.1L129.8,253.5z"/>
	</g>
	<g class="st3">
		<path class="st4" d="M144.3,267.3c0,0.5,0,1,0.1,1.5c0.1,0.5,0.2,1,0.4,1.5c0.3,0.9,0.9,1.9,2,2.2c-0.5,0-1.1-0.1-1.6-0.5
			c-0.5-0.3-0.9-0.8-1.2-1.2c-0.3-0.5-0.6-1-0.9-1.5c-0.3-0.5-0.5-1-0.7-1.6L144.3,267.3z"/>
	</g>
	<g class="st3">
		<path class="st4" d="M139.7,245.1c-0.3,0.2-0.4,0.5-0.3,0.8c0.1,0.3,0.2,0.5,0.4,0.8c0.3,0.5,0.7,1.3,0.5,2.1
			c-0.1,0.4-0.3,0.7-0.5,1c-0.2,0.3-0.4,0.6-0.7,0.9c-0.2,0.3-0.5,0.5-0.6,0.7c-0.1,0.2-0.2,0.3-0.2,0.5l-1.8-0.8
			c0.2-0.4,0.6-0.8,0.9-1c0.3-0.2,0.6-0.4,0.9-0.5c0.2-0.1,0.5-0.3,0.7-0.5c0.2-0.2,0.4-0.4,0.5-0.6c0.3-0.4,0.2-0.9,0-1.5
			c-0.1-0.3-0.2-0.6-0.2-1C139.2,245.5,139.4,245.2,139.7,245.1z"/>
	</g>
	<g class="st3">
		<path class="st4" d="M105.7,275.6c-0.1-0.2-0.4-0.5-0.7-0.6c-0.3-0.2-0.6-0.3-0.9-0.3c-0.7-0.1-1.5,0.1-2.2,0.5
			c-0.3,0.2-0.7,0.5-1.2,0.7c-0.4,0.2-0.8,0.4-1.3,0.5c-0.5,0.1-1,0.1-1.4-0.1c-0.4-0.2-0.8-0.5-1-0.9c0.3,0.4,0.6,0.6,1,0.7
			c0.4,0.1,0.8,0,1.2-0.2c0.4-0.2,0.7-0.4,1.1-0.7c0.3-0.3,0.6-0.6,1-0.9c0.7-0.6,1.6-1.2,2.8-1.2c0.5,0,1.1,0,1.6,0.2
			c0.5,0.2,1,0.4,1.5,0.9L105.7,275.6z"/>
	</g>
	<g class="st3">
		<path class="st4" d="M113.8,267.4c0.1-0.3,0.2-0.8,0.2-1.2c0-0.4-0.1-0.8-0.2-1.2c-0.2-0.4-0.5-0.7-0.9-0.9
			c-0.4-0.2-0.9-0.3-1.4-0.4c0.5-0.1,1-0.2,1.6,0c0.5,0.1,1.1,0.4,1.5,0.8c0.4,0.4,0.7,1,0.9,1.5c0.2,0.6,0.3,1.1,0.3,1.8
			L113.8,267.4z"/>
	</g>
	<g class="st3">
		<path class="st4" d="M126.6,283.6c0,0-0.2,0.2-0.2,0.3c-0.1,0.2-0.1,0.3-0.2,0.5c-0.1,0.4-0.1,0.8-0.1,1.2c0,0.8,0.3,1.7,0.7,2.4
			c0.2,0.3,0.5,0.6,0.9,0.9c0.4,0.3,0.8,0.5,1.2,0.9c0.4,0.4,0.6,0.9,0.5,1.4c0,0.5-0.2,1-0.3,1.4c0.1-0.9,0.2-2-0.5-2.5
			c-0.7-0.4-1.8-0.7-2.5-1.6c-0.4-0.4-0.7-0.9-0.9-1.3c-0.2-0.5-0.4-0.9-0.5-1.5c-0.1-0.5-0.2-1.1-0.1-1.7c0-0.3,0.1-0.6,0.2-0.9
			c0.1-0.3,0.2-0.5,0.4-0.9L126.6,283.6z"/>
	</g>
	<g class="st3">
		<path class="st4" d="M131.9,276.6c0.6-0.1,1.1,0,1.6,0.1c0.5,0.1,0.9,0.3,1.3,0.6c0.8,0.6,1.3,1.3,1.7,2.1
			c0.4,0.8,0.5,1.6,0.8,2.2c0.1,0.3,0.3,0.7,0.6,0.9c0.1,0.1,0.3,0.2,0.5,0.2c0.2,0,0.3-0.2,0.4-0.4c-0.1,0.2-0.2,0.4-0.4,0.5
			c-0.2,0.1-0.5,0-0.6-0.1c-0.4-0.2-0.6-0.6-0.9-0.9c-0.5-0.7-0.8-1.4-1.2-2c-0.4-0.6-1-1-1.5-1.3c-0.3-0.1-0.6-0.2-0.9-0.2
			c-0.3,0-0.6,0-0.8,0.1L131.9,276.6z"/>
	</g>
	<g class="st3">
		<path class="st4" d="M122.1,261.3c0.2-0.5,0.3-1.2,0.2-1.8c-0.1-0.6-0.4-1-1-1.4l-1-0.6c-0.3-0.2-0.7-0.5-0.9-0.9
			c-0.3-0.8-0.3-1.6-0.3-2.3c0.2,0.7,0.3,1.5,0.7,2.1c0.4,0.5,1.2,0.6,1.9,0.9c0.3,0.1,0.8,0.3,1.2,0.6c0.4,0.3,0.6,0.8,0.8,1.2
			c0.4,0.9,0.4,1.8,0.3,2.7L122.1,261.3z"/>
	</g>
	<g class="st3">
		<path class="st4" d="M106.4,285.2c-0.1-0.1-0.5-0.1-0.7-0.1c-0.2,0-0.5,0.1-0.7,0.2c-0.4,0.2-0.8,0.7-1,1.3
			c-0.1,0.3-0.2,0.7-0.3,1c-0.1,0.4-0.3,0.7-0.5,1c-0.2,0.3-0.6,0.6-1,0.6c-0.4,0.1-0.8,0-1.1-0.1c0.3,0.1,0.7,0,1-0.1
			c0.3-0.1,0.5-0.4,0.6-0.7c0.1-0.3,0.2-0.6,0.2-0.9c0-0.3,0-0.6,0.1-1.1c0.1-0.8,0.4-1.6,1.1-2.3c0.3-0.3,0.8-0.6,1.2-0.7
			c0.5-0.1,0.8-0.2,1.4-0.2L106.4,285.2z"/>
	</g>
	<g class="st3">
		<path class="st4" d="M114.4,289.2c0,0-0.2,0.2-0.2,0.4c-0.1,0.2-0.1,0.4-0.1,0.6c-0.1,0.4,0,0.8,0.1,1.3c0.1,0.4,0.3,0.9,0.5,1.3
			c0.2,0.4,0.5,0.8,0.7,1.3c-0.4-0.3-0.8-0.6-1.1-1c-0.3-0.4-0.7-0.8-1-1.2c-0.3-0.5-0.5-1-0.7-1.5c-0.1-0.3-0.1-0.6-0.1-0.9
			c0-0.3,0-0.6,0.2-1.1L114.4,289.2z"/>
	</g>
	<g class="st3">
		<path class="st5" d="M140.1,262c-0.3,0.5-0.7,0.9-1.2,1.3c-0.5,0.3-1.1,0.6-1.6,0.7c-0.6,0.2-1.2,0.2-1.7,0.3
			c-0.6,0-1.1,0-1.8-0.1L133,264l-0.1-0.7c-0.1-0.6-0.1-1.1,0-1.7c0.1-0.6,0.2-1.1,0.4-1.6c0.2-0.5,0.5-1,0.9-1.5
			c0.4-0.4,0.8-0.8,1.4-1c-0.2,0.5-0.4,1-0.5,1.4c-0.1,0.5-0.2,0.9-0.2,1.4c0,0.5,0,0.9,0,1.4c0,0.5,0,1,0.1,1.3l-0.8-0.8
			c0.4,0.1,1,0.1,1.5,0.2c0.5,0,1,0.1,1.5,0.1c0.5,0,1,0,1.5-0.1C139,262.3,139.5,262.2,140.1,262z"/>
	</g>
	<path class="st6" d="M132.6,268.9c-2.2,1.9-6.2,1.1-6.2,1.1s-0.5-3.8,1.6-5.7c2.2-1.9,6.2-1.1,6.2-1.1S134.7,267,132.6,268.9z"/>
	<path class="st6" d="M124.3,275.5c-2.2,1.9-6.2,1.1-6.2,1.1s-0.5-3.8,1.6-5.7c2.2-1.9,6.2-1.1,6.2-1.1S126.5,273.6,124.3,275.5z"/>
	<g class="st3">
		<path class="st5" d="M111.9,278c0.3-0.5,0.7-0.9,1.2-1.3c0.5-0.3,1.1-0.6,1.6-0.7c0.6-0.2,1.2-0.2,1.7-0.3c0.6,0,1.1,0,1.8,0.1
			l0.7,0.1l0.1,0.7c0.1,0.6,0.1,1.1,0,1.7c-0.1,0.6-0.2,1.1-0.4,1.6c-0.2,0.5-0.5,1-0.9,1.5c-0.4,0.4-0.8,0.8-1.4,1
			c0.2-0.5,0.4-1,0.5-1.4c0.1-0.5,0.2-0.9,0.2-1.4c0-0.5,0-0.9,0-1.4c0-0.5,0-1-0.1-1.3l0.8,0.8c-0.4-0.1-1-0.1-1.5-0.2
			c-0.5,0-1-0.1-1.5-0.1c-0.5,0-1,0-1.5,0.1C112.9,277.7,112.4,277.8,111.9,278z"/>
	</g>
</g>
<g id="图层_1">
	<g>
		<path class="st7" d="M140.1,318.4c1.6-3.2,3.4-6.3,5.4-9.2c2-3,4.2-5.8,6.5-8.6c4.6-5.5,9.7-10.7,15.2-15.4
			c11-9.4,23.8-16.9,37.4-22.4c6.8-2.7,13.8-4.9,21-6.7l5.4-1.2c1.8-0.4,3.6-0.7,5.4-1c3.7-0.7,7.3-1.1,10.9-1.6
			c7.2-0.9,14.5-1.4,21.4-2.1c3.4-0.4,6.7-0.8,9.7-1.5c3-0.7,5.6-1.6,8-2.8c4.2-2.3,9.5-0.7,11.8,3.6c2.3,4.2,0.7,9.5-3.6,11.8
			c-0.3,0.2-0.6,0.3-0.9,0.4l-0.3,0.1c-4.2,1.6-8.5,2.5-12.5,3c-4,0.4-7.9,0.5-11.5,0.5c-7.3-0.1-14.3-0.3-21.2-0.2
			c-7,0.1-13.8,0.5-20.6,1.4c-6.8,1-13.6,2.4-20.2,4.3c-13.3,3.8-26,9.8-37.6,17.7c-5.7,4-11.2,8.5-16.2,13.5
			c-2.5,2.5-4.9,5.1-7.2,7.8C144.1,312.6,141.9,315.4,140.1,318.4z"/>
	</g>
	<g class="st0">
		<path class="st2" d="M160.9,296.2c0.5-0.7,0.8-0.9,1.1-1.4l1-1.1c0.6-0.7,1.3-1.4,1.9-2.1c1.3-1.4,2.6-2.7,3.9-3.9
			c2.6-2.5,5.4-4.9,8.1-7.2c5.6-4.6,11.4-8.8,17.5-12.4c12.2-7.4,25.5-12.9,39.2-16c6.9-1.5,13.7-2.5,20.8-2.8
			c3.5-0.1,6.8-0.1,10.1,0c3.3,0.1,6.7,0.1,10,0.3c6.6,0.2,13.2,0.6,19.8,0.7c3.3,0.1,6.5,0,9.8-0.2c3.2-0.3,6.5-0.8,9.3-2.5
			c-2.5,2.2-5.8,3.4-9,4.3c-3.2,0.9-6.5,1.5-9.8,2.1c-6.6,1.1-13.2,1.9-19.7,2.9c-3.3,0.5-6.5,1-9.7,1.5c-3.2,0.5-6.5,1.1-9.5,1.8
			l-4.5,1.1l-4.5,1.4c-1.5,0.5-3,1-4.4,1.5c-1.4,0.6-2.9,1.1-4.3,1.7c-11.4,4.9-21.8,11.6-30.8,19.7c-4.5,4-8.8,8.4-12.6,13
			c-1.9,2.3-3.8,4.7-5.5,7.1c-0.9,1.2-1.7,2.4-2.5,3.6c-0.4,0.6-0.8,1.2-1.1,1.8l-0.5,0.9c-0.1,0.2-0.4,0.6-0.3,0.6
			c-4.5,6.6-13.4,8.3-20,3.8C158.2,311.7,156.5,302.8,160.9,296.2z"/>
	</g>
	<path class="st4" d="M139.3,150.8c0,0,17.4-2,23.8-13.2c6.4-11.2-0.5-27.2-0.5-27.2s-17.4,2-23.8,13.2c-5.2,9.1-2.4,20.2-0.8,24.5
		c0,0,5.5-17.2,14.9-22.7C144.6,134.4,139.6,149.9,139.3,150.8z"/>
	<g id="图层_6">
	</g>
	<path class="st4" d="M130,200.1c0,0-9.7,11.5-19.6,10.2c-9.9-1.3-16.3-14.9-16.3-14.9s9.7-11.5,19.6-10.2
		c8.1,1.1,13.4,9.1,15.3,12.5c0,0-13.1-5.2-21.1-1.3C117.4,195.1,129.3,199.8,130,200.1z"/>
	<g id="茎">
		<defs>
			<rect id="SVGID_1_" x="55.5" y="76.5" width="227.5" height="257"/>
		</defs>
		<clipPath id="SVGID_2_">
			<use xlink:href="#SVGID_1_"  style="overflow:visible;"/>
		</clipPath>
		<g class="st8">
			<path class="st4" d="M159.1,121c0-0.1-0.1,0-0.2,0c-0.1,0-0.1,0.1-0.2,0.1c-0.1,0.1-0.3,0.2-0.4,0.3c-0.2,0.2-0.5,0.5-0.7,0.7
				c-0.5,0.5-0.9,1-1.3,1.5c-0.9,1-1.7,2.1-2.5,3.2c-1.6,2.2-3.1,4.4-4.4,6.7c-2.8,4.6-5.2,9.4-7.1,14.4c-3.9,9.9-6.2,20.5-5.7,31
				c0.2,5.2,1.2,10.4,2.7,15.4c1.6,5,3.8,9.6,6.6,14.1c1.4,2.2,2.8,4.4,4.4,6.5c1.5,2.1,3.2,4.1,5,5.9c3.5,3.7,7.5,6.9,11.9,9
				c4.4,2.1,9.2,3.2,14.2,3.5c5,0.3,10.1-0.1,15.3-0.8c5.3-0.6,10.1-1.6,15.1-3c4.9-1.4,9.9-3.3,15-5.1c5.2-1.8,10.6-3.5,16.1-4.8
				c5.6-1.3,11.2-2,16.9-2.3c2.9-0.2,5.6-0.2,8.4-0.3c2.5-0.1,4.9-0.4,7.4-0.8c4.9-0.8,9.5-2.1,13.6-4c4-1.9,8.8-0.1,10.7,3.9
				s0.1,8.8-3.9,10.7c-0.3,0.2-0.7,0.3-1.1,0.4l-0.2,0.1c-6,1.8-12,2.5-17.9,2.7c-2.9,0.1-5.8,0-8.8-0.2c-2.6-0.1-5.2-0.2-7.8-0.1
				c-5.1,0.1-10.2,0.4-15.2,1.3c-5,0.9-10,2.1-15.1,3.6c-5.1,1.5-10.3,3.2-15.8,4.5c-1.4,0.3-2.7,0.7-4.1,0.9
				c-1.4,0.3-2.8,0.5-4.2,0.7c-2.9,0.5-5.6,0.6-8.4,0.8c-5.5,0.3-11.2,0.5-16.9-0.2c-5.7-0.7-11.5-2.4-16.7-5.3
				c-5.2-2.9-9.5-6.8-13.1-11.2c-1.8-2.2-3.5-4.4-5-6.8c-1.5-2.3-2.9-4.7-4.2-7.1c-2.6-4.8-4.9-10-6.3-15.4
				c-1.4-5.4-2.1-10.9-2.1-16.5c0-11.1,2.9-21.9,7.4-31.7c2.3-4.9,4.9-9.7,7.9-14.2c1.5-2.2,3.1-4.4,4.8-6.5
				c0.8-1.1,1.7-2.1,2.6-3.1c0.5-0.5,0.9-1,1.4-1.5c0.2-0.2,0.5-0.5,0.7-0.7c0.1-0.1,0.3-0.2,0.4-0.3c0.1-0.1,0.1-0.1,0.2-0.1
				C158.9,121,159.1,120.9,159.1,121z"/>
		</g>
	</g>
</g>
<g id="图层_4">
	<defs>
		<path id="SVGID_3_" d="M192.9,129.4l-62.4,36c-5.8,3.3-9.3,9.5-9.3,16.2v72c0,6.7,3.6,12.8,9.3,16.2l62.4,36
			c5.8,3.3,12.9,3.3,18.7,0l62.4-36c5.8-3.3,9.3-9.5,9.3-16.2v-72c0-6.7-3.6-12.8-9.3-16.2l-62.4-36
			C205.8,126.1,198.7,126.1,192.9,129.4z"/>
	</defs>
	<clipPath id="SVGID_4_">
		<use xlink:href="#SVGID_3_"  style="overflow:visible;"/>
	</clipPath>
	<path class="st9" d="M119.9,181.3v72.9c0,6.7,3.6,13,9.4,16.4l63.1,36.4c5.8,3.4,13,3.4,18.9,0l63.1-36.4c5.8-3.4,9.4-9.6,9.4-16.4
		v-72.9c0-6.7-3.6-13-9.4-16.4l-63.1-36.4c-5.8-3.4-13-3.4-18.9,0L129.3,165C123.5,168.3,119.9,174.6,119.9,181.3z"/>
	<g class="st10">
		<path class="st7" d="M140.1,318.4c1.6-3.3,3.5-6.4,5.6-9.4c2.1-3,4.3-5.9,6.6-8.8c4.7-5.6,10-10.8,15.6-15.6
			c11.3-9.5,24.4-17.1,38.4-22.5c7-2.7,14.2-4.8,21.5-6.5c1.8-0.4,3.7-0.9,5.5-1.2l5.6-1c3.7-0.6,7.4-1,11.1-1.4
			c7.4-0.8,14.8-1.3,21.7-2.1c3.4-0.4,6.6-0.9,9.5-1.8c2.9-0.8,5.3-2,7.6-3.5c4-2.6,9.4-1.5,12.1,2.5s1.5,9.4-2.5,12.1
			c-0.3,0.2-0.5,0.3-0.8,0.5l-0.2,0.1c-4,2.1-8.4,3.5-12.6,4.2c-4.2,0.8-8.3,1-12.1,1c-7.7,0.1-14.7-0.2-21.9-0.1
			c-3.6,0-7.1,0.1-10.6,0.3l-5.2,0.4c-1.8,0.1-3.5,0.4-5.2,0.6c-7,0.9-13.9,2.2-20.7,4.1c-13.6,3.7-26.7,9.7-38.5,17.7
			c-5.9,4-11.5,8.6-16.6,13.6c-2.6,2.5-5,5.2-7.4,7.9C144.2,312.4,142,315.3,140.1,318.4z"/>
	</g>
	<g class="st10">
		<path class="st5" d="M156.5,121.3c0-0.1-0.2,0-0.2,0c-0.1,0.1-0.1,0.1-0.2,0.2c-0.1,0.1-0.3,0.3-0.4,0.4c-0.2,0.3-0.5,0.5-0.7,0.8
			c-0.5,0.6-0.9,1.1-1.3,1.7c-0.9,1.2-1.7,2.4-2.4,3.6c-1.5,2.4-3,5-4.3,7.5c-2.6,5.1-4.8,10.5-6.5,16c-3.3,11-4.6,22.6-3.1,33.8
			c0.7,5.6,2.2,11.1,4.2,16.3c2,5.3,4.7,10.2,8,14.6c3.3,4.4,7.3,8.4,11.6,11.8c4.4,3.4,9.1,6.1,14.2,8.1c5,1.9,10.3,3.1,15.6,3.2
			c2.6,0.1,5.2-0.1,7.8-0.6c2.6-0.5,4.8-1.1,7.7-2.1l8.2-2.8c2.7-0.9,5.5-1.8,8.3-2.7l4.2-1.4l4.2-1.3c2.8-0.9,5.6-1.7,8.4-2.5
			c11.3-3.2,22.8-6.1,34.8-7.8c6-0.8,12.2-1.3,18.2-1.3c6.1-0.1,12,0.3,17.5,0.3l-0.7,16c-6-0.5-11.7-1.1-17.1-1.4
			c-5.5-0.3-10.9-0.2-16.4,0.2c-11,0.9-22.2,2.9-33.4,5.4c-2.8,0.6-5.6,1.3-8.4,1.9l-4.2,1l-4.2,1.1c-2.8,0.7-5.6,1.4-8.4,2.2
			l-8.4,2.3c-2.6,0.8-6.1,1.6-9.2,1.9c-3.2,0.4-6.4,0.4-9.5,0.2c-6.3-0.5-12.4-2.2-18-4.8c-11.2-5.2-20.6-13.6-27.3-23.6
			c-3.3-5-5.9-10.6-7.8-16.2c-1.9-5.7-3.1-11.5-3.6-17.5c-1-11.8,1-23.7,4.9-34.7c2-5.5,4.5-10.8,7.4-15.8c1.5-2.5,3-5,4.7-7.3
			c0.8-1.2,1.7-2.3,2.6-3.5c0.5-0.6,0.9-1.1,1.4-1.7c0.2-0.3,0.5-0.5,0.8-0.8c0.1-0.1,0.3-0.2,0.4-0.4c0.1-0.1,0.1-0.1,0.2-0.2
			C156.3,121.3,156.4,121.2,156.5,121.3z"/>
	</g>
	<g id="图层_3" class="st10">
	</g>
	<g id="图层_7" class="st11">
		<path class="st12" d="M247.5,116.5c0.5,8.5,3.2,54.1-37,79c-18.8,11.3-30,41-40.7,47.7C153,259,111,278.3,105,292.7"/>
		<path class="st13" d="M175.7,244.7L157.6,259c-3.2,2.5-7.9,2-10.4-1.3h0c-2.5-3.2-2-7.9,1.3-10.4l18.1-14.2
			c3.2-2.5,7.9-2,10.4,1.3h0C179.5,237.5,179,242.2,175.7,244.7z"/>
		<path class="st13" d="M208.5,228.9l-21.2,9c-3.8,1.6-8.2-0.2-9.8-4l0,0c-1.6-3.8,0.2-8.2,4-9.8l21.2-9c3.8-1.6,8.2,0.2,9.8,4l0,0
			C214.1,222.9,212.3,227.3,208.5,228.9z"/>
		<path class="st13" d="M239.5,213.7l-19.3,8.2c-3.3,1.4-7.2-0.2-8.6-3.5h0c-1.4-3.3,0.2-7.2,3.5-8.6l19.3-8.2
			c3.3-1.4,7.2,0.2,8.6,3.5l0,0C244.4,208.4,242.8,212.3,239.5,213.7z"/>
		<path class="st13" d="M263.2,188.7l-12.3,15.2c-2,2.5-5.8,2.9-8.3,0.9l0,0c-2.5-2-2.9-5.8-0.9-8.3l12.3-15.2
			c2-2.5,5.8-2.9,8.3-0.9h0C264.8,182.4,265.2,186.2,263.2,188.7z"/>
		<path class="st5" d="M278.4,156.8l-5.3,16.6c-1,3-4.2,4.7-7.2,3.7l-0.1,0c-3-1-4.7-4.2-3.7-7.2l5.3-16.6c1-3,4.2-4.7,7.2-3.7
			l0.1,0C277.7,150.6,279.4,153.8,278.4,156.8z"/>
		<path class="st13" d="M293,134.2l-8.7,14.9c-1.6,2.7-5.1,3.7-7.9,2.1l0,0c-2.7-1.6-3.7-5.1-2.1-7.9l8.7-14.9
			c1.6-2.7,5.1-3.7,7.9-2.1v0C293.6,127.9,294.6,131.5,293,134.2z"/>
		<path class="st13" d="M308.7,117.2l-11,9.9c-2,1.8-5.2,1.6-7-0.4v0c-1.8-2-1.6-5.2,0.4-7l11-9.9c2-1.8,5.2-1.6,7,0.4v0
			C310.9,112.3,310.7,115.4,308.7,117.2z"/>
		<path class="st13" d="M323.1,100l-8.2,10.2c-1.4,1.7-4,2-5.7,0.6l0,0c-1.7-1.4-2-4-0.6-5.7l8.2-10.2c1.4-1.7,4-2,5.7-0.6h0
			C324.3,95.7,324.5,98.2,323.1,100z"/>
	</g>
	<g id="图层_11" class="st10">
		<path class="st5" d="M120,251.8l52.4-41.2c9.3-7.3,23.9-5.6,32.5,3.8l0,0c8.6,9.4,8.1,23.1-1.2,30.4L151.3,286
			c-9.3,7.3-23.9,5.6-32.5-3.8l0,0C110.1,272.8,110.7,259.1,120,251.8z"/>
		<g>
			<path class="st4" d="M192.3,232.3c-0.6,1.1-1.7,2-2.8,2.7c-1.1,0.7-2.4,1.1-3.6,1.4c-1.3,0.3-2.5,0.4-3.8,0.4
				c-1.3,0-2.5-0.1-3.9-0.4l-1.6-0.3l-0.1-1.6c-0.1-1.4,0-2.5,0.2-3.7c0.2-1.2,0.5-2.4,1-3.5c0.5-1.1,1.2-2.2,2-3.1
				c0.9-0.9,1.9-1.6,3.1-2c-0.6,1.1-1,2-1.3,3c-0.3,1-0.5,2-0.6,3c-0.1,1-0.2,2-0.2,3c0,1,0,2.1,0.1,2.9l-1.7-1.9
				c0.9,0.2,2.1,0.4,3.1,0.5c1.1,0.2,2.2,0.3,3.2,0.3c1.1,0.1,2.2,0.1,3.3,0C189.9,232.8,191,232.6,192.3,232.3z"/>
		</g>
		<path class="st14" d="M175.2,246.4c-4.9,3.9-13.6,1.9-13.6,1.9s-0.8-8.3,4.1-12.2c4.9-3.9,13.6-1.9,13.6-1.9
			S180.1,242.5,175.2,246.4z"/>
		<path class="st14" d="M156.7,260c-4.9,3.9-13.6,1.9-13.6,1.9s-0.8-8.3,4.1-12.2c4.9-3.9,13.6-1.9,13.6-1.9S161.6,256.1,156.7,260z
			"/>
		<g>
			<path class="st4" d="M129.4,264.2c0.6-1.1,1.7-2,2.8-2.7c1.1-0.7,2.4-1.1,3.6-1.4c1.3-0.3,2.5-0.4,3.8-0.4c1.3,0,2.5,0.1,3.9,0.4
				l1.6,0.3l0.1,1.6c0.1,1.4,0,2.5-0.2,3.7c-0.2,1.2-0.5,2.4-1,3.5c-0.5,1.1-1.2,2.2-2,3.1c-0.9,0.9-1.9,1.6-3.1,2
				c0.6-1.1,1-2,1.3-3c0.3-1,0.5-2,0.6-3c0.1-1,0.2-2,0.2-3c0-1,0-2.1-0.1-2.9l1.7,1.9c-0.9-0.2-2.1-0.4-3.1-0.5
				c-1.1-0.2-2.2-0.3-3.2-0.3c-1.1-0.1-2.2-0.1-3.3,0C131.7,263.7,130.6,263.9,129.4,264.2z"/>
		</g>
		<circle class="st5" cx="212.1" cy="225" r="2.3"/>
		<circle class="st5" cx="211.5" cy="217.2" r="3.7"/>
	</g>
	<g id="图层_8" class="st10">
		<path class="st15" d="M107.4,277.6l23.2-20c4.1-3.5,10.9-3.1,15,1.1l0,0c4.1,4.1,4.2,10.4,0.1,14l-23.2,20
			c-4.1,3.5-10.9,3.1-15-1.1l0,0C103.3,287.4,103.3,281.1,107.4,277.6z"/>
		<g class="st0">
			<path class="st13" d="M148.1,266.5c0.1,0.2,0.4,0.5,0.7,0.6c0.3,0.2,0.6,0.3,0.9,0.4c0.7,0.1,1.5-0.1,2.2-0.5
				c0.3-0.2,0.8-0.5,1.2-0.7c0.4-0.2,0.9-0.4,1.3-0.5c0.5-0.1,1-0.1,1.4,0.1c0.4,0.2,0.8,0.6,0.9,1c-0.2-0.4-0.6-0.7-1-0.7
				c-0.4-0.1-0.8,0-1.2,0.1c-0.4,0.1-0.7,0.4-1.1,0.6c-0.3,0.3-0.6,0.5-1,0.9c-0.7,0.6-1.7,1.1-2.8,1.1c-0.5,0-1.1-0.1-1.6-0.3
				c-0.5-0.2-1-0.5-1.5-1L148.1,266.5z"/>
		</g>
		<g class="st0">
			<path class="st13" d="M145.3,258.4c0.1,0.1,0.4,0.3,0.6,0.3c0.2,0.1,0.5,0.1,0.7,0.1c0.5,0,1-0.4,1.3-0.9
				c0.4-0.5,0.8-1.3,1.5-1.7c0.3-0.2,0.7-0.3,1.1-0.3c0.4,0.1,0.7,0.3,0.9,0.5c-0.3-0.2-0.6-0.3-1-0.3c-0.3,0-0.6,0.2-0.8,0.4
				c-0.2,0.2-0.4,0.5-0.5,0.8c-0.1,0.3-0.2,0.6-0.4,1c-0.3,0.7-0.8,1.5-1.7,1.8c-0.4,0.2-0.9,0.3-1.4,0.2c-0.5,0-0.9-0.1-1.4-0.3
				L145.3,258.4z"/>
		</g>
		<g class="st0">
			<path class="st13" d="M129.9,258.6c0,0,0.1-0.2,0.1-0.4c0-0.2,0-0.4-0.1-0.6c-0.1-0.4-0.3-0.8-0.5-1.2c-0.2-0.4-0.5-0.8-0.9-1.1
				c-0.3-0.4-0.7-0.7-1.1-1c0.5,0.2,0.9,0.4,1.4,0.6c0.4,0.3,0.9,0.5,1.3,0.9c0.4,0.3,0.8,0.8,1.1,1.3c0.1,0.3,0.3,0.5,0.4,0.8
				c0.1,0.3,0.2,0.6,0.2,1.1L129.9,258.6z"/>
		</g>
		<g class="st0">
			<path class="st13" d="M144.4,272.4c0,0.5,0,1,0.1,1.5c0.1,0.5,0.2,1,0.4,1.5c0.3,0.9,0.9,1.9,2,2.2c-0.5,0-1.1-0.1-1.6-0.5
				c-0.5-0.3-0.9-0.8-1.2-1.2c-0.3-0.5-0.6-1-0.9-1.5c-0.3-0.5-0.5-1-0.7-1.6L144.4,272.4z"/>
		</g>
		<g class="st0">
			<path class="st13" d="M139.9,250.2c-0.3,0.2-0.4,0.5-0.3,0.8c0.1,0.3,0.2,0.5,0.4,0.8c0.3,0.5,0.7,1.3,0.5,2.1
				c-0.1,0.4-0.3,0.7-0.5,1c-0.2,0.3-0.4,0.6-0.7,0.9c-0.2,0.3-0.5,0.5-0.6,0.7c-0.1,0.2-0.2,0.3-0.2,0.5l-1.8-0.8
				c0.2-0.4,0.6-0.8,0.9-1c0.3-0.2,0.6-0.4,0.9-0.5c0.2-0.1,0.5-0.3,0.7-0.5c0.2-0.2,0.4-0.4,0.5-0.6c0.3-0.4,0.2-0.9,0-1.5
				c-0.1-0.3-0.2-0.6-0.2-1C139.3,250.6,139.6,250.3,139.9,250.2z"/>
		</g>
		<g class="st0">
			<path class="st13" d="M105.8,280.7c-0.1-0.2-0.4-0.5-0.7-0.6c-0.3-0.2-0.6-0.3-0.9-0.3c-0.7-0.1-1.5,0.1-2.2,0.5
				c-0.3,0.2-0.7,0.5-1.2,0.7c-0.4,0.2-0.8,0.4-1.3,0.5c-0.5,0.1-1,0.1-1.4-0.1c-0.4-0.2-0.8-0.5-1-0.9c0.3,0.4,0.6,0.6,1,0.7
				c0.4,0.1,0.8,0,1.2-0.2c0.4-0.2,0.7-0.4,1.1-0.7c0.3-0.3,0.6-0.6,1-0.9c0.7-0.6,1.6-1.2,2.8-1.2c0.5,0,1.1,0,1.6,0.2
				c0.5,0.2,1,0.4,1.5,0.9L105.8,280.7z"/>
		</g>
		<g class="st0">
			<path class="st13" d="M113.9,272.5c0.1-0.3,0.2-0.8,0.2-1.2c0-0.4-0.1-0.8-0.2-1.2c-0.2-0.4-0.5-0.7-0.9-0.9
				c-0.4-0.2-0.9-0.3-1.4-0.4c0.5-0.1,1-0.2,1.6,0c0.5,0.1,1.1,0.4,1.5,0.8c0.4,0.4,0.7,1,0.9,1.5c0.2,0.6,0.3,1.1,0.3,1.8
				L113.9,272.5z"/>
		</g>
		<g class="st0">
			<path class="st13" d="M126.8,288.7c0,0-0.2,0.2-0.2,0.3c-0.1,0.2-0.1,0.3-0.2,0.5c-0.1,0.4-0.1,0.8-0.1,1.2
				c0,0.8,0.3,1.7,0.7,2.4c0.2,0.3,0.5,0.6,0.9,0.9c0.4,0.3,0.8,0.5,1.2,0.9c0.4,0.4,0.6,0.9,0.5,1.4c0,0.5-0.2,1-0.3,1.4
				c0.1-0.9,0.2-2-0.5-2.5c-0.7-0.4-1.8-0.7-2.5-1.6c-0.4-0.4-0.7-0.9-0.9-1.3c-0.2-0.5-0.4-0.9-0.5-1.5c-0.1-0.5-0.2-1.1-0.1-1.7
				c0-0.3,0.1-0.6,0.2-0.9c0.1-0.3,0.2-0.5,0.4-0.9L126.8,288.7z"/>
		</g>
		<g class="st0">
			<path class="st13" d="M132,281.7c0.6-0.1,1.1,0,1.6,0.1c0.5,0.1,0.9,0.3,1.3,0.6c0.8,0.6,1.3,1.3,1.7,2.1
				c0.4,0.8,0.5,1.6,0.8,2.2c0.1,0.3,0.3,0.7,0.6,0.9c0.1,0.1,0.3,0.2,0.5,0.2c0.2,0,0.3-0.2,0.4-0.4c-0.1,0.2-0.2,0.4-0.4,0.5
				c-0.2,0.1-0.5,0-0.6-0.1c-0.4-0.2-0.6-0.6-0.9-0.9c-0.5-0.7-0.8-1.4-1.2-2c-0.4-0.6-1-1-1.5-1.3c-0.3-0.1-0.6-0.2-0.9-0.2
				c-0.3,0-0.6,0-0.8,0.1L132,281.7z"/>
		</g>
		<g class="st0">
			<path class="st13" d="M122.2,266.4c0.2-0.5,0.3-1.2,0.2-1.8c-0.1-0.6-0.4-1-1-1.4l-1-0.6c-0.3-0.2-0.7-0.5-0.9-0.9
				c-0.3-0.8-0.3-1.6-0.3-2.3c0.2,0.7,0.3,1.5,0.7,2.1c0.4,0.5,1.2,0.6,1.9,0.9c0.3,0.1,0.8,0.3,1.2,0.6c0.4,0.3,0.6,0.8,0.8,1.2
				c0.4,0.9,0.4,1.8,0.3,2.7L122.2,266.4z"/>
		</g>
		<g class="st0">
			<path class="st13" d="M106.6,290.3c-0.1-0.1-0.5-0.1-0.7-0.1c-0.2,0-0.5,0.1-0.7,0.2c-0.4,0.2-0.8,0.7-1,1.3
				c-0.1,0.3-0.2,0.7-0.3,1c-0.1,0.4-0.3,0.7-0.5,1c-0.2,0.3-0.6,0.6-1,0.6c-0.4,0.1-0.8,0-1.1-0.1c0.3,0.1,0.7,0,1-0.1
				c0.3-0.1,0.5-0.4,0.6-0.7c0.1-0.3,0.2-0.6,0.2-0.9c0-0.3,0-0.6,0.1-1.1c0.1-0.8,0.4-1.6,1.1-2.3c0.3-0.3,0.8-0.6,1.2-0.7
				c0.5-0.1,0.8-0.2,1.4-0.2L106.6,290.3z"/>
		</g>
		<g class="st0">
			<path class="st13" d="M114.5,294.2c0,0-0.2,0.2-0.2,0.4c-0.1,0.2-0.1,0.4-0.1,0.6c-0.1,0.4,0,0.8,0.1,1.3
				c0.1,0.4,0.3,0.9,0.5,1.3c0.2,0.4,0.5,0.8,0.7,1.3c-0.4-0.3-0.8-0.6-1.1-1c-0.3-0.4-0.7-0.8-1-1.2c-0.3-0.5-0.5-1-0.7-1.5
				c-0.1-0.3-0.1-0.6-0.1-0.9c0-0.3,0-0.6,0.2-1.1L114.5,294.2z"/>
		</g>
		<g class="st0">
			<path class="st2" d="M140.2,267.1c-0.3,0.5-0.7,0.9-1.2,1.3c-0.5,0.3-1.1,0.6-1.6,0.7c-0.6,0.2-1.2,0.2-1.7,0.3
				c-0.6,0-1.1,0-1.8-0.1l-0.7-0.1l-0.1-0.7c-0.1-0.6-0.1-1.1,0-1.7c0.1-0.6,0.2-1.1,0.4-1.6c0.2-0.5,0.5-1,0.9-1.5
				c0.4-0.4,0.8-0.8,1.4-1c-0.2,0.5-0.4,1-0.5,1.4c-0.1,0.5-0.2,0.9-0.2,1.4c0,0.5,0,0.9,0,1.4c0,0.5,0,1,0.1,1.3l-0.8-0.8
				c0.4,0.1,1,0.1,1.5,0.2c0.5,0,1,0.1,1.5,0.1c0.5,0,1,0,1.5-0.1C139.2,267.4,139.7,267.3,140.2,267.1z"/>
		</g>
		<path class="st16" d="M132.7,273.9c-2.2,1.9-6.2,1.1-6.2,1.1s-0.5-3.8,1.6-5.7c2.2-1.9,6.2-1.1,6.2-1.1S134.9,272.1,132.7,273.9z"
			/>
		<path class="st16" d="M124.4,280.5c-2.2,1.9-6.2,1.1-6.2,1.1s-0.5-3.8,1.6-5.7c2.2-1.9,6.2-1.1,6.2-1.1S126.6,278.7,124.4,280.5z"
			/>
		<g class="st0">
			<path class="st2" d="M112,283.1c0.3-0.5,0.7-0.9,1.2-1.3c0.5-0.3,1.1-0.6,1.6-0.7c0.6-0.2,1.2-0.2,1.7-0.3c0.6,0,1.1,0,1.8,0.1
				l0.7,0.1l0.1,0.7c0.1,0.6,0.1,1.1,0,1.7c-0.1,0.6-0.2,1.1-0.4,1.6c-0.2,0.5-0.5,1-0.9,1.5c-0.4,0.4-0.8,0.8-1.4,1
				c0.2-0.5,0.4-1,0.5-1.4c0.1-0.5,0.2-0.9,0.2-1.4c0-0.5,0-0.9,0-1.4c0-0.5,0-1-0.1-1.3l0.8,0.8c-0.4-0.1-1-0.1-1.5-0.2
				c-0.5,0-1-0.1-1.5-0.1c-0.5,0-1,0-1.5,0.1C113.1,282.8,112.6,282.9,112,283.1z"/>
		</g>
		<path class="st5" d="M129.6,200.3c0,0-9.7,11.5-19.6,10.2s-16.3-14.9-16.3-14.9s9.7-11.5,19.6-10.2c8.1,1.1,13.4,9.1,15.3,12.5
			c0,0-13.1-5.2-21.1-1.3C117,195.4,128.9,200.1,129.6,200.3z"/>
	</g>
	<g class="st10">
		<path class="st5" d="M141.1,212.1c0,0-0.1-0.3-0.2-0.5c-0.1-0.2-0.2-0.5-0.3-0.7c-0.3-0.5-0.5-1-0.9-1.4c-0.3-0.5-0.7-0.9-1.1-1.4
			c-0.4-0.4-0.8-0.9-1.3-1.3c-1.8-1.6-3.9-3-6.3-4.1c-1.1-0.6-2.4-1-3.6-1.5c-1.2-0.4-2.5-0.8-3.7-1.2c-1.3-0.3-2.6-0.6-3.8-0.9
			l-3.9-0.7l4,0c1.3,0.1,2.7,0.2,4,0.3c1.3,0.2,2.7,0.4,4,0.6c1.3,0.3,2.7,0.5,4,1c2.6,0.8,5.2,1.9,7.6,3.4c0.6,0.4,1.2,0.8,1.8,1.3
			c0.5,0.5,1.1,0.9,1.6,1.5c0.5,0.5,1,1.1,1.5,1.7c0.2,0.3,0.5,0.6,0.7,1c0.2,0.4,0.4,0.7,0.6,1.3c0.4,1.3-0.3,2.7-1.6,3.1
			C142.9,214.1,141.5,213.4,141.1,212.1z"/>
	</g>
	<path class="st17" d="M148.8,203"/>
	<g class="st10">
		<path class="st5" d="M145,218c0.7-1.5,1.4-2.6,2.1-3.8c0.7-1.1,1.5-2.2,2.3-3.3c1.6-2.1,3.2-4.2,4.9-6.2c1.7-2,3.6-3.9,5.6-5.6
			c1-0.8,2.1-1.6,3.2-2.3c1.1-0.7,2.4-1.2,3.7-1.4c-2.4,1.1-4,3.1-5.4,5c-1.4,2-2.7,4.2-3.8,6.4c-1.1,2.2-2.1,4.5-3,6.8
			c-0.4,1.2-0.9,2.3-1.2,3.5c-0.4,1.1-0.7,2.4-0.8,3.2L145,218z"/>
	</g>
	<path class="st18" d="M192.5,180.5c-18.9,5.5-36.8,23-35.2,23.7c7.7-8.2,17.2-7.7,35.2-3.7c16.6,3.7,22.5-1.4,32-11
		c4.5-4.4,10.9-7.7,14-9C238.5,180.5,209.5,175.5,192.5,180.5z"/>
	<g class="st10">
		<g>
			<path class="st19" d="M152.6,198.5c-1.6-1.8-2.5-2.7-4.1-4.5c0.4-0.5,0.7-0.7,1.1-1.2c2.2-0.1,7,0,7.9,0.1c0,0,0,0,0,0
				c-0.6-0.6-1.2-1.4-1.8-2.3c-0.7-0.9-1-1.3-1.7-2.2c0.3-0.3,0.5-0.5,0.8-0.8c1.5,2.1,2.3,3.2,3.9,5.3c-0.4,0.4-0.6,0.5-1.1,0.9
				c-2-0.2-7.1-0.2-8-0.2c0,0,0,0,0,0c0.6,0.5,1.2,1.2,1.9,2.1c0.7,0.8,1.1,1.2,1.8,2C153.1,198,152.9,198.2,152.6,198.5z"/>
			<path class="st19" d="M160.2,189c0.1,1,0.1,1.5,0.2,2.6c-0.3,0.3-0.5,0.4-0.8,0.7c-0.4-3.1-0.5-4.7-0.7-8
				c0.4-0.4,0.7-0.5,1.1-0.9c2.8,1.3,4.2,2,6.9,3.6c-0.4,0.2-0.6,0.4-0.9,0.6c-0.9-0.5-1.3-0.7-2.2-1.2
				C162.3,187.4,161.6,187.9,160.2,189z M163.2,186c-1.9-1-2.9-1.4-3.4-1.7c0,0,0,0,0,0c0.1,0.6,0.2,2.1,0.4,4
				C161.4,187.4,162,186.9,163.2,186z"/>
			<path class="st19" d="M164.9,179.8c0.8,1.5,1.2,2.3,2.1,3.8c0.9,1.6,2.3,1.2,3.5,0.5c1.4-0.8,2.3-1.9,1.5-3.6
				c-0.8-1.6-1.1-2.4-1.9-4.1c0.4-0.2,0.6-0.4,1-0.6c0.7,1.6,1.1,2.5,1.8,4.1c1,2.2-0.3,3.6-2.1,4.7c-1.8,1.1-3.7,1.4-4.7-0.4
				c-0.8-1.5-1.3-2.3-2.1-3.8C164.3,180.2,164.5,180.1,164.9,179.8z"/>
			<path class="st19" d="M177.6,177.4c0.1,0.3,0.2,0.4,0.3,0.6c-1.4,0.7-2.1,1-3.5,1.8c-0.1-0.2-0.2-0.4-0.3-0.6
				C175.5,178.5,176.1,178.1,177.6,177.4z"/>
			<path class="st19" d="M186.8,174.7c-0.1,1.5-1,2.8-3.1,3.6c-2.8,1.1-4.8,0.1-5.6-1.9c-0.7-2,0.1-4.6,3.1-5.9
				c2.3-1,3.9-0.5,4.6,0.7c-0.4,0.2-0.6,0.2-1,0.4c-0.7-0.8-1.7-1.1-3.4-0.4c-2.4,1.1-2.8,3.1-2.2,4.7c0.5,1.5,2,2.7,4.4,1.8
				c1.5-0.6,2.1-1.5,2.2-2.6C186.2,174.9,186.4,174.8,186.8,174.7z"/>
			<path class="st19" d="M186.6,168.4c0.4-0.2,0.6-0.2,1.1-0.4c0.3,1.4,0.5,2.1,0.9,3.5c2.3-0.8,3.4-1.2,5.8-1.8
				c-0.3-1.5-0.4-2.2-0.7-3.6c0.4-0.1,0.7-0.2,1.1-0.3c0.6,3.4,0.9,5.1,1.5,8.6c-0.4,0.1-0.6,0.1-1,0.2c-0.3-1.6-0.5-2.5-0.8-4.1
				c-2.3,0.6-3.5,1-5.7,1.8c0.4,1.6,0.6,2.3,1,3.9c-0.4,0.1-0.6,0.2-1,0.3C187.9,173.2,187.5,171.6,186.6,168.4z"/>
			<path class="st19" d="M198.1,164.8c0.5,3.5,0.8,5.3,1.3,8.8c-0.4,0.1-0.6,0.1-1,0.2c-0.6-3.5-0.8-5.2-1.4-8.7
				C197.5,165,197.7,164.9,198.1,164.8z"/>
			<path class="st19" d="M201.5,173.2c-0.5-3.6-0.7-5.3-1.1-8.9c0.6-0.1,0.9-0.2,1.5-0.3c1.9,1.8,5.8,6.2,6.5,7.1c0,0,0,0,0,0
				c-0.2-1.3-0.2-2.7-0.3-4.2c-0.1-1.6-0.1-2.4-0.2-4c0.4-0.1,0.7-0.1,1.1-0.2c0.2,3.8,0.2,5.6,0.4,9.4c-0.5,0-0.8,0.1-1.3,0.1
				c-1.6-1.9-5.7-6.4-6.6-7.3c0,0,0,0,0,0c0.2,1.1,0.3,2.5,0.5,4.1c0.2,1.6,0.3,2.3,0.4,3.9C202.1,173.1,201.9,173.1,201.5,173.2z"
				/>
			<path class="st19" d="M212.7,168.8c-0.5,1.3-0.7,1.9-1.2,3.2c-0.4,0-0.6,0-1,0.1c1.3-3.9,2.1-5.8,3.7-9.8c0.6,0,0.8-0.1,1.4-0.1
				c1.6,3.8,2.4,5.7,3.7,9.7c-0.4,0-0.7,0-1.1,0c-0.5-1.3-0.7-1.9-1.2-3.2C215.3,168.6,214.4,168.6,212.7,168.8z M216.7,167.7
				c-1-2.7-1.6-4-1.9-4.7c0,0,0,0,0,0c-0.3,0.8-1,2.5-1.8,4.9C214.5,167.8,215.2,167.7,216.7,167.7z"/>
			<path class="st19" d="M223.7,167.8c0,0.4,0,0.5-0.1,0.9c-1.6-0.1-2.3-0.1-3.9-0.1c0-0.4,0-0.5,0-0.9
				C221.4,167.7,222.2,167.7,223.7,167.8z"/>
			<path class="st19" d="M225.8,161.9c1.5,0,2.3,0.1,3.9,0.2c3.1,0.2,4.9,2.5,4.3,5.6c-0.6,3.1-2.8,4.9-5.7,4.6
				c-1.4-0.2-2.1-0.2-3.5-0.3C225.1,168,225.3,165.9,225.8,161.9z M225.9,171.2c0.9,0.1,1.4,0.1,2.3,0.2c2.6,0.3,4.2-1.3,4.6-3.8
				c0.4-2.2-0.5-4.4-3.4-4.6c-1-0.1-1.5-0.1-2.5-0.2C226.4,166.2,226.2,167.8,225.9,171.2z"/>
			<path class="st19" d="M241.9,169.5c-2.1-0.5-3.2-0.7-5.4-1.1c-0.3,1.6-0.5,2.5-0.8,4.1c2.3,0.4,3.4,0.7,5.7,1.3
				c-0.2,0.4-0.2,0.6-0.4,0.9c-2.6-0.7-3.9-1-6.5-1.4c0.8-4.2,1.2-6.3,2-10.4c2.8,0.4,4.3,0.6,7.1,1.2c-0.1,0.4-0.2,0.6-0.3,1
				c-2.4-0.5-3.5-0.7-5.9-1.1c-0.3,1.4-0.4,2.1-0.7,3.5c2.2,0.4,3.3,0.6,5.4,1.1C242,168.9,242,169.1,241.9,169.5z"/>
		</g>
	</g>
</g>
<g id="图层_5">
	<g>
		<path class="st4" d="M153.4,201.4c0.7-0.6,1.1-0.9,1.7-1.2l1.6-1c1.1-0.7,2.1-1.3,3.2-1.9c2.1-1.2,4.3-2.4,6.5-3.6
			c4.4-2.2,8.8-4.3,13.4-6c4.6-1.7,9.3-3.2,14.1-4.1c4.8-0.8,9.8-1.2,14.6-0.1c-4.8-0.8-9.7-0.3-14.5,0.8c-4.7,1.1-9.3,2.8-13.7,4.7
			c-4.4,1.9-8.7,4.2-12.9,6.6c-2.1,1.2-4.2,2.5-6.2,3.8c-1,0.7-2,1.3-3,2l-1.4,1.1c-0.4,0.3-1,0.8-1.2,1l-0.1,0.1
			c-0.6,0.6-1.5,0.6-2.1,0C152.8,203.1,152.8,202.1,153.4,201.4C153.4,201.5,153.4,201.5,153.4,201.4z"/>
	</g>
</g>
</svg>
