<?xml version="1.0" encoding="utf-8"?>
<!-- Generator: Adobe Illustrator 24.3.0, SVG Export Plug-In . SVG Version: 6.00 Build 0)  -->
<svg version="1.1" id="图层_1" xmlns="http://www.w3.org/2000/svg" xmlns:xlink="http://www.w3.org/1999/xlink" x="0px" y="0px"
	 viewBox="0 0 100 100" style="enable-background:new 0 0 100 100;" xml:space="preserve">
<style type="text/css">
	.st0{fill:none;stroke:#4C657D;stroke-width:5.3271;stroke-linecap:square;stroke-linejoin:round;stroke-miterlimit:10;}
	.st1{fill:none;stroke:#4C657D;stroke-width:2.7474;stroke-linecap:round;stroke-linejoin:round;stroke-miterlimit:10;}
	.st2{fill:none;stroke:#4C657D;stroke-width:3.5514;stroke-linecap:round;stroke-linejoin:round;stroke-miterlimit:10;}
	.st3{fill:none;stroke:#213D57;stroke-width:7;stroke-linecap:round;stroke-linejoin:round;stroke-miterlimit:10;}
	.st4{fill:none;stroke:#213D57;stroke-width:3.5514;stroke-linecap:round;stroke-linejoin:round;stroke-miterlimit:10;}
</style>
<line class="st0" x1="62.7" y1="80.4" x2="76.9" y2="71.6"/>
<line class="st1" x1="68.8" y1="75" x2="57.2" y2="59"/>
<path class="st2" d="M53.6,45.4c3.6,5.3,4.5,10.9,2,12.6c-2,1.3-5.5-0.4-8.7-3.9"/>
<path class="st3" d="M51,71 M70.6,58.8c1.4-2.9,2.2-6.1,2.2-9.5c0-12-9.7-21.8-21.8-21.8s-21.8,9.7-21.8,21.8S39,71,51,71 M51,71
	l6.2,8.4L76.7,67l-6.2-8.2"/>
<line class="st4" x1="13" y1="58" x2="24" y2="57"/>
<line class="st4" x1="12" y1="35" x2="24" y2="39"/>
<line class="st4" x1="27" y1="14" x2="35" y2="26"/>
<line class="st4" x1="55" y1="8" x2="53" y2="20"/>
<line class="st4" x1="75" y1="19" x2="69.8" y2="25.9"/>
</svg>
