<?xml version="1.0" encoding="utf-8"?>
<!-- Generator: Adobe Illustrator 24.3.0, SVG Export Plug-In . SVG Version: 6.00 Build 0)  -->
<svg version="1.1" id="图层_1" xmlns="http://www.w3.org/2000/svg" xmlns:xlink="http://www.w3.org/1999/xlink" x="0px" y="0px"
	 viewBox="0 0 400 400" style="enable-background:new 0 0 400 400;" xml:space="preserve">
<style type="text/css">
	.st0{fill:#E8553E;}
	.st1{fill:#F4B453;}
	.st2{fill:#F5EA68;}
	.st3{fill:#ACD166;}
	.st4{fill:#7CC5E5;}
	.st5{fill:#766DAB;}
</style>
<path class="st0" d="M380.2,275.9C360,63.6,40.8,63.6,20.6,275.9c-1.1,11.4-4.1,21.4-7.8,21.5l0,0c-3.8,0.1-7-10.8-5.8-23.1
	c21.7-228.4,365.1-228.4,386.8,0c1.2,12.4-2,23.2-5.8,23.1c-2.5-0.1-2.5-0.1,0,0C384.3,297.4,381.3,287.3,380.2,275.9L380.2,275.9z"
	/>
<path class="st1" d="M366.4,277.6c-18.7-196.1-313.4-196.1-332,0c-1,10.5-4,19.8-7.8,19.9l0,0c-3.8,0.1-7-10-5.8-21.5
	C41,63.8,359.9,63.8,380,276c1.1,11.5-2.1,21.6-5.8,21.5c-2.5-0.1-2.5-0.1,0,0C370.4,297.4,367.5,288.1,366.4,277.6L366.4,277.6z"/>
<path class="st2" d="M352.6,279.2c-17.1-179.8-287.3-179.8-304.4,0c-0.9,9.6-3.9,18.1-7.7,18.2l0,0c-3.8,0.1-7-9.2-5.9-19.8
	c18.6-195.9,313-195.9,331.6,0c1,10.6-2.2,19.9-5.9,19.8l0,0C356.6,297.4,353.6,288.8,352.6,279.2z"/>
<path class="st3" d="M338.9,280.9c-15.5-163.5-261.3-163.5-276.9,0c-0.8,8.7-3.8,16.5-7.6,16.6l0,0c-3.8,0.1-6.9-8.4-6-18.2
	c17.1-179.6,287-179.6,304.1,0c0.9,9.8-2.2,18.3-6,18.2l0,0C342.7,297.4,339.7,289.6,338.9,280.9L338.9,280.9z"/>
<path class="st4" d="M325.1,282.5c-14-147.2-235.3-147.2-249.3,0c-0.8,7.8-3.8,14.8-7.5,14.9l0,0c-3.8,0.1-6.9-7.7-6.1-16.5
	c15.5-163.3,261-163.3,276.5,0c0.9,8.9-2.3,16.6-6.1,16.5c-2.5-0.1-2.5-0.1,0,0C328.8,297.4,325.8,290.4,325.1,282.5L325.1,282.5z"
	/>
<path class="st5" d="M311.3,284.2c-12.5-131-209.3-131-221.7,0c-0.7,7-3.7,13.2-7.5,13.3l0,0c-3.8,0.1-6.9-6.9-6.2-14.9
	c14-147,235-147,248.9,0c0.8,8-2.4,15-6.2,14.9c-2.5-0.1-2.5-0.1,0,0C315,297.4,312,291.2,311.3,284.2L311.3,284.2z"/>
</svg>
