<?xml version="1.0" encoding="utf-8"?>
<!-- Generator: Adobe Illustrator 24.3.0, SVG Export Plug-In . SVG Version: 6.00 Build 0)  -->
<svg version="1.1" xmlns="http://www.w3.org/2000/svg" xmlns:xlink="http://www.w3.org/1999/xlink" x="0px" y="0px"
	 viewBox="0 0 400 600" style="enable-background:new 0 0 400 600;" xml:space="preserve">
<style type="text/css">
	.st0{display:none;}
	.st1{fill:#072540;}
	.st2{display:inline;fill:#A2B8B3;}
	.st3{display:inline;fill:#FFFFFF;}
	.st4{display:inline;}
	.st5{fill:#07243E;}
	.st6{font-family:'ArialRoundedMTBold';}
	.st7{font-size:14px;}
	.st8{clip-path:url(#SVGID_2_);fill:#D1E5C1;}
	.st9{clip-path:url(#SVGID_2_);}
	.st10{clip-path:url(#SVGID_4_);fill:#94BC83;}
	
		.st11{clip-path:url(#SVGID_6_);fill:none;stroke:#4E687B;stroke-width:3.828;stroke-linecap:round;stroke-linejoin:round;stroke-miterlimit:10;}
	.st12{clip-path:url(#SVGID_6_);fill:#1C4364;}
	
		.st13{clip-path:url(#SVGID_8_);fill:none;stroke:#1E3C55;stroke-width:2.625;stroke-linecap:round;stroke-linejoin:round;stroke-miterlimit:10;}
	
		.st14{clip-path:url(#SVGID_2_);fill:none;stroke:#516B7C;stroke-width:1.03;stroke-linecap:round;stroke-linejoin:round;stroke-miterlimit:10;}
	.st15{clip-path:url(#SVGID_2_);fill:none;stroke:#4A637A;stroke-width:3.733;stroke-linejoin:round;stroke-miterlimit:10;}
	
		.st16{clip-path:url(#SVGID_2_);fill:none;stroke:#1E3C55;stroke-width:1.866;stroke-linecap:round;stroke-linejoin:round;stroke-miterlimit:10;}
	
		.st17{clip-path:url(#SVGID_2_);fill:none;stroke:#1E3C55;stroke-width:3.733;stroke-linecap:round;stroke-linejoin:round;stroke-miterlimit:10;}
	.st18{clip-path:url(#SVGID_2_);fill:#1E3C55;}
	
		.st19{clip-path:url(#SVGID_2_);fill:none;stroke:#1E3C55;stroke-width:1.537;stroke-linecap:round;stroke-linejoin:round;stroke-miterlimit:10;}
	
		.st20{clip-path:url(#SVGID_2_);fill:none;stroke:#4A637A;stroke-width:2.672;stroke-linecap:square;stroke-linejoin:round;stroke-miterlimit:10;}
	
		.st21{clip-path:url(#SVGID_2_);fill:none;stroke:#4A637A;stroke-width:1.378;stroke-linecap:round;stroke-linejoin:round;stroke-miterlimit:10;}
	
		.st22{clip-path:url(#SVGID_10_);fill:none;stroke:#4A637A;stroke-width:1.782;stroke-linecap:round;stroke-linejoin:round;stroke-miterlimit:10;}
	
		.st23{clip-path:url(#SVGID_10_);fill:none;stroke:#1E3C55;stroke-width:3.512;stroke-linecap:round;stroke-linejoin:round;stroke-miterlimit:10;}
	.st24{fill:#5F7F95;}
	.st25{fill:#E2F2F1;}
	.st26{fill:none;stroke:#E2F2F1;stroke-width:3.733;stroke-linecap:round;stroke-linejoin:round;stroke-miterlimit:10;}
	.st27{fill:none;stroke:#E2F2F1;stroke-width:4;stroke-linecap:round;stroke-linejoin:round;stroke-miterlimit:10;}
</style>
<g id="图层_4" class="st0">
</g>
<g id="图层_5" class="st0">
	
		<image style="overflow:visible;" width="1080" height="635" xlink:href="34BC1154.jpg"  transform="matrix(0.5546 0 0 0.5546 -613 98)">
	</image>
	
		<image style="overflow:visible;" width="719" height="979" xlink:href="../9.21/DEF48F7A.jpg"  transform="matrix(0.5655 0 0 0.5655 -440 -470)">
	</image>
	
		<image style="overflow:visible;" width="63" height="76" xlink:href="34BC1153.jpg"  transform="matrix(2.2857 0 0 1.3548 -261 159)">
	</image>
	<rect x="-215" y="475" class="st1" width="72" height="72"/>
</g>
<g id="图层_3" class="st0">
	<rect y="1" class="st2" width="817" height="600"/>
	
		<image style="display:inline;overflow:visible;" width="57" height="67" xlink:href="34BC115C.jpg"  transform="matrix(1 0 0 1 -272 478)">
	</image>
	<path class="st3" d="M732,586H352c-6.6,0-12-5.4-12-12V50c0-6.6,5.4-12,12-12h380c6.6,0,12,5.4,12,12v524
		C744,580.6,738.6,586,732,586z"/>
	<g class="st4">
		<text transform="matrix(1 0 0 1 399.8145 97.8521)"><tspan x="0" y="0" class="st5 st6 st7">shdshfbjsdf njkhdj jhbndmnbjkfejfjefhdck</tspan><tspan x="0" y="16.8" class="st5 st6 st7">fnjdsfhsfjhkjncm  djns  s sjkhsw of skjajkshw</tspan></text>
	</g>
</g>
<g id="图层_1" class="st0">
	<g class="st4">
		<g>
			<defs>
				<rect id="SVGID_1_" y="-47" width="817" height="85"/>
			</defs>
			<clipPath id="SVGID_2_">
				<use xlink:href="#SVGID_1_"  style="overflow:visible;"/>
			</clipPath>
			<rect y="-46" class="st8" width="817" height="46"/>
			<g class="st9">
				<defs>
					<rect id="SVGID_3_" y="-47" width="817" height="85"/>
				</defs>
				<clipPath id="SVGID_4_">
					<use xlink:href="#SVGID_3_"  style="overflow:visible;"/>
				</clipPath>
				<path class="st10" d="M486-7l-56.1,0c-7.6,0-14.3-5.3-15.6-12.7c-1.7-9.8,5.8-18.3,15.3-18.3l56,0c7.6,0,14.3,5.3,15.6,12.7
					c1.7,9.8-5.8,18.3-15.3,18.3"/>
			</g>
			<g class="st9">
				<text transform="matrix(1 0 0 1 453.2852 -16.5815)" class="st6" style="fill:#08243F; font-size:12.8301px;">Home</text>
			</g>
			<g class="st9">
				<text transform="matrix(1 0 0 1 540.7598 -15.4912)"><tspan x="0" y="0" class="st6" style="fill:#08243F; font-size:12.8301px;">P</tspan><tspan x="8.6" y="0" class="st6" style="fill:#08243F; font-size:12.8301px;">r</tspan><tspan x="13.7" y="0" class="st6" style="fill:#08243F; font-size:12.8301px;">oject</tspan></text>
			</g>
			<g class="st9">
				<text transform="matrix(1 0 0 1 630.6865 -16.0044)"><tspan x="0" y="0" class="st6" style="fill:#08243F; font-size:12.8301px;">L</tspan><tspan x="7.7" y="0" class="st6" style="fill:#08243F; font-size:12.8301px;">a</tspan><tspan x="15.2" y="0" class="st6" style="fill:#08243F; font-size:12.8301px;">b Not</tspan><tspan x="48.5" y="0" class="st6" style="fill:#08243F; font-size:12.8301px;">e</tspan><tspan x="55.9" y="0" class="st6" style="fill:#08243F; font-size:12.8301px;">book</tspan></text>
			</g>
			<g class="st9">
				<text transform="matrix(1 0 0 1 763.4785 -16.0044)"><tspan x="0" y="0" class="st6" style="fill:#08243F; font-size:12.8301px;">T</tspan><tspan x="7.2" y="0" class="st6" style="fill:#08243F; font-size:12.8301px;">eam</tspan></text>
			</g>
			<g class="st9">
				<defs>
					<rect id="SVGID_5_" y="-47" width="817" height="85"/>
				</defs>
				<clipPath id="SVGID_6_">
					<use xlink:href="#SVGID_5_"  style="overflow:visible;"/>
				</clipPath>
				<circle class="st11" cx="743.2" cy="-22.1" r="8.1"/>
				<path class="st12" d="M761.5-17.2c0,2.7-2.2,4.9-4.9,4.9c-2.7,0-4.9-2.2-4.9-4.9c0-2.7,2.2-4.9,4.9-4.9
					C759.3-22.1,761.5-19.9,761.5-17.2"/>
			</g>
			<g class="st9">
				<defs>
					<rect id="SVGID_7_" x="599" y="-39" width="34" height="34"/>
				</defs>
				<clipPath id="SVGID_8_">
					<use xlink:href="#SVGID_7_"  style="overflow:visible;"/>
				</clipPath>
				<polyline class="st13" points="621.7,-28.9 626.8,-13.7 611.4,-8.5 605.3,-26.6 618.4,-31 				"/>
			</g>
			<line class="st14" x1="624.2" y1="-36.6" x2="618.9" y2="-27.4"/>
			<line class="st14" x1="609.4" y1="-23.8" x2="617.3" y2="-26.4"/>
			<line class="st15" x1="444" y1="-31" x2="444" y2="-27"/>
			<polyline class="st16" points="439,-12 445,-12 445,-21.7 437,-28.9 429,-21.7 429,-12 435,-12 			"/>
			<polyline class="st17" points="426.4,-23.3 436.9,-32.4 447.2,-23.3 			"/>
			<polyline class="st16" points="439,-12 439,-19 435,-19 435,-12 			"/>
			<polygon class="st18" points="435,-12.1 435,-19.1 433,-18 433,-10.7 			"/>
			<polygon class="st19" points="435,-12.1 435,-19.1 433,-18 433,-10.7 			"/>
			<line class="st20" x1="531" y1="-10.2" x2="536.8" y2="-13.8"/>
			<line class="st21" x1="533.5" y1="-12.4" x2="528.8" y2="-18.9"/>
			<g class="st9">
				<defs>
					<rect id="SVGID_9_" y="-47" width="817" height="85"/>
				</defs>
				<clipPath id="SVGID_10_">
					<use xlink:href="#SVGID_9_"  style="overflow:visible;"/>
				</clipPath>
				<path class="st22" d="M527.4-24.5c1.5,2.2,1.8,4.5,0.8,5.1c-0.8,0.5-2.3-0.1-3.6-1.6"/>
				<path class="st23" d="M534.3-19c0.6-1.2,0.9-2.5,0.9-3.9c0-4.9-4-8.9-8.9-8.9c-4.9,0-8.9,4-8.9,8.9c0,4.9,4,8.9,8.9,8.9
					 M526.3-14l2.5,3.4l8-5.1l-2.5-3.4"/>
			</g>
			<g class="st9">
				<defs>
					<rect id="SVGID_11_" width="816" height="38"/>
				</defs>
				<clipPath id="SVGID_12_">
					<use xlink:href="#SVGID_11_"  style="overflow:visible;"/>
				</clipPath>
			</g>
			<g class="st9">
				<defs>
					<rect id="SVGID_13_" y="-47" width="113" height="85"/>
				</defs>
				<clipPath id="SVGID_14_">
					<use xlink:href="#SVGID_13_"  style="overflow:visible;"/>
				</clipPath>
			</g>
			<g class="st9">
				<defs>
					<path id="SVGID_15_" d="M48.4-26.3L28.1-14.5c-1.9,1.1-3.1,3.1-3.1,5.3v23.5c0,2.2,1.2,4.2,3.1,5.3l20.4,11.8
						c1.9,1.1,4.2,1.1,6.1,0l20.4-11.8c1.9-1.1,3.1-3.1,3.1-5.3V-9.3c0-2.2-1.2-4.2-3.1-5.3L54.6-26.3c-0.9-0.5-2-0.8-3.1-0.8
						S49.4-26.9,48.4-26.3"/>
				</defs>
				<clipPath id="SVGID_16_">
					<use xlink:href="#SVGID_15_"  style="overflow:visible;"/>
				</clipPath>
			</g>
			<g class="st9">
				<defs>
					<rect id="SVGID_17_" y="-47" width="113" height="85"/>
				</defs>
				<clipPath id="SVGID_18_">
					<use xlink:href="#SVGID_17_"  style="overflow:visible;"/>
				</clipPath>
			</g>
			<g class="st9">
				<defs>
					<rect id="SVGID_19_" y="-47" width="113" height="85"/>
				</defs>
				<clipPath id="SVGID_20_">
					<use xlink:href="#SVGID_19_"  style="overflow:visible;"/>
				</clipPath>
			</g>
			<g class="st9">
				<defs>
					<rect id="SVGID_21_" y="-47" width="113" height="85"/>
				</defs>
				<clipPath id="SVGID_22_">
					<use xlink:href="#SVGID_21_"  style="overflow:visible;"/>
				</clipPath>
			</g>
		</g>
	</g>
</g>
<g id="图层_2">
	<path class="st24" d="M143,51.5c0,5.8-4.7,10.5-10.5,10.5c-5.8,0-10.5-4.7-10.5-10.5c0-3.5,11-9.5,11-9.5H53.3
		C46.5,42,41,47.5,41,54.3v525.4c0,6.8,5.5,12.3,12.3,12.3h155.4c6.8,0,12.3-5.5,12.3-12.3V54.3c0-6.8-5.5-12.3-12.3-12.3H131
		C131,42,143,48,143,51.5z"/>
	<path class="st25" d="M194.5,574H69.5c-5.8,0-10.5-4.7-10.5-10.5V86.5C59,80.7,63.7,76,69.5,76h124.9c5.8,0,10.5,4.7,10.5,10.5
		v476.9C205,569.3,200.3,574,194.5,574z"/>
	<path class="st26" d="M65,22c13-6,70-1,66,24.6"/>
	<path class="st26" d="M101.7,7.3c0,0,32.5,14.4,33.5,39.9"/>
	<path class="st27" d="M127,40c0,0,0.3,5.6,4,9"/>
	<path class="st27" d="M137,39c0,0,0,6.4-3,10"/>
</g>
</svg>
