<?xml version="1.0" encoding="utf-8"?>
<!-- Generator: Adobe Illustrator 24.3.0, SVG Export Plug-In . SVG Version: 6.00 Build 0)  -->
<svg version="1.1" id="图层_1" xmlns="http://www.w3.org/2000/svg" xmlns:xlink="http://www.w3.org/1999/xlink" x="0px" y="0px"
	 viewBox="0 0 100 100" style="enable-background:new 0 0 100 100;" xml:space="preserve">
<style type="text/css">
	.st0{fill:none;stroke:#534741;stroke-width:5.3271;stroke-linecap:square;stroke-linejoin:round;stroke-miterlimit:10;}
	.st1{fill:none;stroke:#534741;stroke-width:2.7474;stroke-linecap:round;stroke-linejoin:round;stroke-miterlimit:10;}
	.st2{fill:none;stroke:#534741;stroke-width:3.5514;stroke-linecap:round;stroke-linejoin:round;stroke-miterlimit:10;}
	.st3{fill:none;stroke:#E9E78F;stroke-width:3.5514;stroke-linecap:round;stroke-linejoin:round;stroke-miterlimit:10;}
	.st4{fill:none;stroke:#E9E78F;stroke-width:3.1466;stroke-linecap:round;stroke-linejoin:round;stroke-miterlimit:10;}
</style>
<line class="st0" x1="165.7" y1="82.4" x2="179.9" y2="73.6"/>
<line class="st1" x1="172.8" y1="78" x2="161.2" y2="62"/>
<path class="st2" d="M157.6,48.4c3.6,5.3,4.5,10.9,2,12.6c-2,1.3-5.5-0.4-8.7-3.9"/>
<path class="st3" d="M155,74 M174.6,61.8c1.4-2.9,2.2-6.1,2.2-9.5c0-12-9.7-21.8-21.8-21.8s-21.8,9.7-21.8,21.8S143,74,155,74
	 M155,74l6.2,8.4L180.7,70l-6.2-8.2"/>
<line class="st3" x1="117" y1="61" x2="128" y2="60"/>
<line class="st3" x1="116" y1="38" x2="128" y2="42"/>
<line class="st3" x1="131" y1="17" x2="139" y2="29"/>
<line class="st3" x1="159" y1="13" x2="157" y2="25"/>
<line class="st3" x1="178" y1="24" x2="172.8" y2="30.9"/>
<line class="st1" x1="80.3" y1="32.2" x2="67.9" y2="59.9"/>
<line class="st1" x1="30.5" y1="44.5" x2="62.5" y2="33.5"/>
<line class="st1" x1="35.3" y1="56.5" x2="65.5" y2="46.5"/>
<line class="st1" x1="38.3" y1="69.5" x2="62.5" y2="61.5"/>
<polyline class="st4" points="76.7,54.9 83.6,75 37.3,90.9 18.4,36 64.7,20.1 71.9,40.9 "/>
</svg>
