<?xml version="1.0" encoding="utf-8"?>
<!-- Generator: Adobe Illustrator 24.3.0, SVG Export Plug-In . SVG Version: 6.00 Build 0)  -->
<svg version="1.1" id="图层_1" xmlns="http://www.w3.org/2000/svg" xmlns:xlink="http://www.w3.org/1999/xlink" x="0px" y="0px"
	 viewBox="0 0 100 1000" style="enable-background:new 0 0 100 1000;" xml:space="preserve">
<style type="text/css">
	.st0{fill:#998675;}
	.st1{fill:#736357;}
	.st2{fill:#F4EBAB;}
	.st3{fill:#C7B299;}
	.st4{opacity:0.38;}
	.st5{fill:#FFFFE4;}
	.st6{fill:none;stroke:#C7B299;stroke-width:1.8124;stroke-miterlimit:10;}
</style>
<g>
	<path class="st0" d="M40.2,46.3c-11.4,0-20.6-9.2-20.6-20.6S28.8,5,40.2,5c11.4,0,20.6,9.2,20.6,20.6S51.5,46.3,40.2,46.3z"/>
	<path class="st1" d="M40.2,5.2c11.2,0,20.4,9.1,20.4,20.4S51.4,46,40.2,46s-20.4-9.1-20.4-20.4S28.9,5.2,40.2,5.2 M40.2,4.8
		c-11.5,0-20.8,9.3-20.8,20.8s9.3,20.8,20.8,20.8S61,37.2,61,25.6S51.7,4.8,40.2,4.8L40.2,4.8z"/>
</g>
<g>
	<circle class="st2" cx="40.3" cy="158.9" r="12.7"/>
</g>
<g>
	<circle class="st2" cx="40.3" cy="297" r="12.7"/>
</g>
<g>
	<path class="st3" d="M40.2,42.7c-9.4,0-17-7.6-17-17s7.6-17,17-17s17,7.6,17,17S49.5,42.7,40.2,42.7z"/>
	<path class="st1" d="M40.2,8.8c9.3,0,16.8,7.6,16.8,16.8c0,9.3-7.6,16.8-16.8,16.8c-9.3,0-16.8-7.6-16.8-16.8
		C23.3,16.4,30.9,8.8,40.2,8.8 M40.2,8.4c-9.5,0-17.2,7.7-17.2,17.2s7.7,17.2,17.2,17.2s17.2-7.7,17.2-17.2S49.7,8.4,40.2,8.4
		L40.2,8.4z"/>
</g>
<g class="st4">
	<circle class="st5" cx="40.2" cy="25.6" r="11.8"/>
</g>
<line class="st6" x1="40.2" y1="51.9" x2="40.2" y2="140.7"/>
<line class="st6" x1="40.2" y1="177" x2="40" y2="280"/>
<line class="st6" x1="40" y1="752" x2="40" y2="847"/>
<g>
	<path class="st0" d="M40.2,893.6c-11.4,0-20.6-9.2-20.6-20.6c0-11.4,9.2-20.6,20.6-20.6c11.4,0,20.6,9.2,20.6,20.6
		C60.8,884.4,51.5,893.6,40.2,893.6z"/>
	<path class="st1" d="M40.2,852.6c11.2,0,20.4,9.1,20.4,20.4c0,11.2-9.1,20.4-20.4,20.4s-20.4-9.1-20.4-20.4
		C19.8,861.7,28.9,852.6,40.2,852.6 M40.2,852.1c-11.5,0-20.8,9.3-20.8,20.8c0,11.5,9.3,20.8,20.8,20.8S61,884.5,61,873
		C61,861.5,51.7,852.1,40.2,852.1L40.2,852.1z"/>
</g>
<g>
	<path class="st3" d="M40.2,890c-9.4,0-17-7.6-17-17s7.6-17,17-17s17,7.6,17,17S49.5,890,40.2,890z"/>
	<path class="st1" d="M40.2,856.1c9.3,0,16.8,7.6,16.8,16.8c0,9.3-7.6,16.8-16.8,16.8c-9.3,0-16.8-7.6-16.8-16.8
		C23.3,863.7,30.9,856.1,40.2,856.1 M40.2,855.8c-9.5,0-17.2,7.7-17.2,17.2c0,9.5,7.7,17.2,17.2,17.2s17.2-7.7,17.2-17.2
		C57.4,863.5,49.7,855.8,40.2,855.8L40.2,855.8z"/>
</g>
<g class="st4">
	<circle class="st5" cx="40.2" cy="873" r="11.8"/>
</g>
<g>
	<circle class="st2" cx="40.3" cy="590.2" r="12.7"/>
</g>
<line class="st6" x1="40" y1="461" x2="40" y2="572"/>
<line class="st6" x1="40" y1="608" x2="40" y2="719"/>
<g>
	<circle class="st2" cx="39.8" cy="442.3" r="12.7"/>
</g>
<line class="st6" x1="40" y1="316" x2="40" y2="425"/>
<g>
	<circle class="st2" cx="39.6" cy="736" r="12.7"/>
</g>
<line class="st6" x1="40" y1="899" x2="40" y2="968"/>
<g>
	<circle class="st2" cx="39.8" cy="984.1" r="12.7"/>
</g>
</svg>
